<svg xmlns="http://www.w3.org/2000/svg" xmlns:xlink="http://www.w3.org/1999/xlink" viewBox="0 0 500 500"><defs><style>.cls-1,.cls-12,.cls-13,.cls-45{fill:none;}.cls-2{isolation:isolate;}.cls-3{fill:#fff;}.cls-4{fill:#c8eefb;}.cls-5{fill:#5084da;}.cls-6{fill:#5193f4;}.cls-25,.cls-27,.cls-7{opacity:0.4;}.cls-18,.cls-21,.cls-25,.cls-27,.cls-30,.cls-31,.cls-34,.cls-35,.cls-36,.cls-38,.cls-42,.cls-44,.cls-7,.cls-9{mix-blend-mode:multiply;}.cls-8{opacity:0.23;}.cls-9{fill:#605aca;}.cls-16,.cls-23,.cls-31,.cls-36,.cls-9{opacity:0.5;}.cls-10{fill:#4ca1ff;}.cls-11{fill:#52d2bc;}.cls-12{stroke:#00ad9f;}.cls-12,.cls-13,.cls-45{stroke-linecap:round;stroke-linejoin:round;}.cls-13{stroke:#0b43a4;opacity:0.31;}.cls-14{fill:#4a84d8;}.cls-15{fill:#00ad9f;}.cls-16{mix-blend-mode:screen;}.cls-17{fill:#7ee8d4;}.cls-18{fill:#5a4fd1;opacity:0.37;}.cls-19{fill:#0056ec;}.cls-20{clip-path:url(#clip-path);}.cls-21{opacity:0.09;}.cls-22,.cls-23{fill:#94ebff;}.cls-22,.cls-30,.cls-34,.cls-35,.cls-44{opacity:0.3;}.cls-24,.cls-25,.cls-44{fill:#f9714e;}.cls-26,.cls-27{fill:#ffb255;}.cls-28,.cls-35{fill:#ffc2d3;}.cls-29,.cls-31{fill:#2e2c84;}.cls-32{fill:#001f64;}.cls-33,.cls-34{fill:#8fc2ff;}.cls-36{fill:#ffc87c;}.cls-37{fill:#f9acc8;}.cls-38{opacity:0.1;}.cls-39{fill:#4b48b5;}.cls-40{fill:#568edb;}.cls-41{fill:#5e9ce4;}.cls-42{opacity:0.16;}.cls-43{fill:#4e84d9;}.cls-45{stroke:#086356;}.cls-46{opacity:0.7;}</style><clipPath id="clip-path"><circle class="cls-1" cx="249.91" cy="184.16" r="24.65"/></clipPath></defs><title>Artboard 1</title><g class="cls-2"><g id="BACKGROUND"><rect class="cls-3" width="500" height="500"/><path class="cls-4" d="M453.2,193.13c6.64,12.07,16.29,23.45,17.13,37.06,1.34,21.86-20,38.33-28.68,58.59-10.7,24.86-1.73,54.15-11.19,79.47-6.86,18.34-23.69,33-43.47,37.84-14.82,3.63-30.41,2-45.72,2.14-43.45.42-86.73,15.45-129.58,8.63-21.16-3.37-41.17-12-62.43-14.72-25.49-3.31-55.2.69-73.42-16.63-25.45-24.21-6.56-68.71-25.66-97.75C44,278.39,34.12,271.08,30.8,260.5,26.91,248.14,33.2,235,41,224.44S58.48,204.21,62.71,192c3.84-11.13,1.5-23.22-3.23-34-7.24-16.57,12.91-54.55,52.86-51.7,18.32,1.31,26.56-19.91,46.65-25.79,23-6.73,51.89-1.32,68.84,4.31,17.22,5.72,38.52,8.73,48.39-5.89C290.17,58.2,331.73,55,350.39,88.5c6.82,12.25,12.88,21.78,27.39,20.84C456.39,104.28,443.33,175.19,453.2,193.13ZM238.91,79.82c0,2.81,0,7.64,12.4,6.85,3.8-.24,6.9-2.28,6.9-5.09s-3.09-5.09-6.9-5.09S238.91,75.33,238.91,79.82ZM116.78,93.47a2.58,2.58,0,0,0-.82,1A7.33,7.33,0,0,1,112.35,97,6.39,6.39,0,0,0,110,98.28a2.52,2.52,0,0,0,.24,3.64,4.89,4.89,0,0,0,3.29.72A20.86,20.86,0,0,0,125.4,98.2C129.76,94.74,119.18,92.17,116.78,93.47ZM105,99.95c-1.45-1-3.33-.4-4.77.34a1.3,1.3,0,0,0-.73.71c-.19.68.68,1.17,1.38,1.39a5.62,5.62,0,0,0,3.39.31C105.37,102.34,106.47,100.9,105,99.95ZM50.18,189.61c-1.07-3.28-3.61-4.91-7.46-3a14.08,14.08,0,0,0-5.26,5.26c-2.21,3.35-4.11,7.19-3.65,11.12a10.47,10.47,0,0,0,4.45,7.27,5.86,5.86,0,0,0,3.44,1.2,6.52,6.52,0,0,0,3.65-1.6,36.16,36.16,0,0,0,6.32-6.95,9.19,9.19,0,0,0,2.19-4.24C54.26,195.26,51.17,192.62,50.18,189.61Zm402,101a5.28,5.28,0,0,0-2.55,1.77,5.15,5.15,0,0,0-.65,2.29,45.64,45.64,0,0,0-.28,5c0,1.82.19,3.83,1.59,5.07,1.88,1.67,4.87,1.08,7.33.39a7.17,7.17,0,0,0,3.76-1.92,6,6,0,0,0,1.07-2.82c.6-3.32,2.42-8.34.4-10.06S455.68,289.15,452.16,290.59ZM313.28,419A5.77,5.77,0,0,0,312,420.6a3.48,3.48,0,0,0,1.79,4.62,7.32,7.32,0,0,0,2.85.34c8.27-.11,17.16-.41,23.77-5.16.81-.58,1.64-1.39,1.5-2.35-.17-1.15-1.6-1.65-2.8-1.88C330.85,414.57,319.93,412.78,313.28,419Zm-157-12.77c-7.19-1-18.63-2.34-18.63,3.48,0,2.2,10.15,4.31,11.83,4.71a135.19,135.19,0,0,1,15.13,5c9.42,3.48,17-1.21,9.5-6.46A38.28,38.28,0,0,0,156.29,406.25Z"/></g><g id="OBJECTS"><path class="cls-5" d="M392.65,268.73a128.28,128.28,0,0,0,32.55-8c.5-.21.8,3.2.8,3.2s2.33-4.55,3.14-4.93c8.57-4,16.43-9.68,20.65-17.47,0,0,2.08,47.82-59.4,58.44Z"/><path class="cls-5" d="M413.09,323.28s20.29,10.75,60,12.62c0,0-27,24.63-88.74,16.15l2-28.05Z"/><path class="cls-6" d="M384.71,296a121.1,121.1,0,0,1,24-10.9c.59-.2,1.85,3.3,1.85,3.3s2-4.56,3.1-4.88c17.76-5.32,42.06-8.79,68.23-1.4,0,0-7.93,11-24.16,23.14-.69.52-5.28.11-5.28.11s1.92,2.32,1.29,2.76a155.41,155.41,0,0,1-65.84,26Z"/><g class="cls-7"><path class="cls-5" d="M481.92,282.09A228,228,0,0,1,458,295.33c-8.19,4-16.61,7.52-25.14,10.74-4.26,1.63-8.61,3-12.92,4.46l-6.55,2c-1.09.32-2.18.67-3.28,1l-3.32.83a223.13,223.13,0,0,1-26.8,5.27l6.68-1.38,3.34-.68c1.11-.25,2.21-.54,3.31-.8l6.63-1.58,6.57-1.82c4.39-1.17,8.7-2.61,13-3.92,4.29-1.5,8.61-2.9,12.83-4.56,8.53-3.11,16.91-6.63,25.17-10.42q6.2-2.83,12.28-5.91T481.92,282.09Z"/><path class="cls-5" d="M426.42,307.73c1.69-1.58,3.34-3.19,5-4.8s3.23-3.25,4.77-4.94,3-3.42,4.45-5.2,2.73-3.66,4-5.61a30.14,30.14,0,0,1-3.16,6.21,45.9,45.9,0,0,1-4.32,5.49A48.88,48.88,0,0,1,426.42,307.73Z"/><path class="cls-5" d="M401.85,315.11a43.8,43.8,0,0,0,5.12-4,40.18,40.18,0,0,0,4.44-4.63,38.08,38.08,0,0,0,3.68-5.25,56.2,56.2,0,0,0,2.94-5.79,24.43,24.43,0,0,1-2,6.28,26.25,26.25,0,0,1-3.57,5.6,27.3,27.3,0,0,1-4.81,4.59A22,22,0,0,1,401.85,315.11Z"/><path class="cls-5" d="M426.42,307.73a85.07,85.07,0,0,0,9.4,0c1.55-.08,3.09-.26,4.64-.49s3.07-.56,4.65-.84a17.74,17.74,0,0,1-4.44,1.85,23,23,0,0,1-4.76.8,25.61,25.61,0,0,1-4.82-.14A18.75,18.75,0,0,1,426.42,307.73Z"/><path class="cls-5" d="M402.35,315.14c1.91.23,3.8.41,5.69.61s3.77.33,5.65.41,3.76.08,5.64,0a56.5,56.5,0,0,0,5.66-.57,20.88,20.88,0,0,1-5.56,1.59,33.26,33.26,0,0,1-5.8.26A35.48,35.48,0,0,1,402.35,315.14Z"/></g><g class="cls-8"><path class="cls-9" d="M443.48,253.93a35.56,35.56,0,0,1-7.8,11.92,51.73,51.73,0,0,1-11.3,8.83l-3.17,1.7c-1.05.58-2.18,1-3.27,1.48a59.06,59.06,0,0,1-6.74,2.44c-1.12.41-2.3.62-3.46.91l-3.48.83c-2.36.37-4.71.71-7.07,1,2.31-.59,4.63-1.06,6.92-1.64l3.4-1c1.13-.35,2.28-.62,3.37-1.08,2.19-.87,4.45-1.56,6.55-2.62,1.06-.51,2.17-.91,3.19-1.49l3.09-1.69a60.07,60.07,0,0,0,11.25-8.4,35,35,0,0,0,2.45-2.53c.39-.44.79-.87,1.17-1.32l1.09-1.39A34.25,34.25,0,0,0,443.48,253.93Z"/></g><path class="cls-10" d="M460.1,339.28c-2.78.53-5.59.86-8.41,1.19s-5.64.48-8.47.62a145.07,145.07,0,0,1-17-.24c-2.83-.24-5.65-.56-8.46-1a77,77,0,0,1-8.35-1.68,57.86,57.86,0,0,1-15.73-6.37,62,62,0,0,0,7.84,3.15,76.19,76.19,0,0,0,8.13,2.22,118.8,118.8,0,0,0,16.68,2.36c5.6.49,11.24.6,16.87.55S454.46,339.77,460.1,339.28Z"/><path class="cls-10" d="M433.5,349.2A21.24,21.24,0,0,1,422.64,347a16.75,16.75,0,0,1-4.54-3.36,12.68,12.68,0,0,1-2.8-4.83,20.83,20.83,0,0,0,3.52,4.09,22.49,22.49,0,0,0,4.41,2.92,34.39,34.39,0,0,0,5,2A52.69,52.69,0,0,0,433.5,349.2Z"/><path class="cls-10" d="M418.71,350.08a21.25,21.25,0,0,1-10.14-4.45,16.75,16.75,0,0,1-3.7-4.27,12.68,12.68,0,0,1-1.68-5.32,20.85,20.85,0,0,0,2.55,4.75,22.51,22.51,0,0,0,3.68,3.81,34.42,34.42,0,0,0,4.43,3A52.67,52.67,0,0,0,418.71,350.08Z"/><path class="cls-11" d="M256.58,390.5a33,33,0,0,0-25-11.2c-7,.09-13.78,2.4-20.73,2A26.5,26.5,0,0,1,186.25,351c.8-5.5,3.68-11,8.66-13.48a16.72,16.72,0,0,1,8.86-1.4,25,25,0,0,1,8,2.13c5.76,2.56,10.77,7.06,14.77,12,3.63,4.52,11.93,11.17,17.54,15.47,3.29,2.51,5.66,4.2,5.66,4.2C253.67,373.63,253.87,385.84,256.58,390.5Z"/><path class="cls-12" d="M195.64,353c17.48,5,36.79,12,50.44,24"/><path class="cls-6" d="M308.29,350.52A22.11,22.11,0,0,1,306,359a19.17,19.17,0,0,1-3.78,4.82,29.08,29.08,0,0,1-2.42,2.05,35.33,35.33,0,0,1-10.61,5.57c-5.47,1.74-11.32,2.06-16.34,5.14a19.87,19.87,0,0,0-8.19,10.26l0-4.9c.54-5.42,1.08-10.94,3.1-16.12a46,46,0,0,1,5.25-9.45,65.48,65.48,0,0,1,11.44-12.86c3.53-3,7.57-5.5,11.88-6.15s8.89.95,10.87,4.75C308.46,344.58,308.55,347.61,308.29,350.52Z"/><path class="cls-13" d="M267.68,377.41a40.61,40.61,0,0,1,14.86-17.94c4-2.65,8.46-4.46,12.58-6.94s8.09-5.86,10-10.39"/><path class="cls-11" d="M261,381.86c7.69-7.63,18.6-11.12,29.32-12.66,8.94-1.28,18.34-1.33,26.7,2.08,2.62,1.07,5.2,2.56,6.75,4.92s1.77,5.79-.12,7.89c-1.6,1.77-4.19,2.21-6.58,2.29-7.85.28-15.54-2-23.23-3.61-13.22-2.77-27.62-3.44-39.64,2.73"/><path class="cls-12" d="M270.54,377.85c15.91-6.71,38.9-4.55,48.93,2.39"/><path class="cls-14" d="M82.31,299.8c-7.19-3.46-10.64-12.66-16.55-14.64-7.32-2.53-9.38,5.65-21.21,3.63-9.94-1.7-13-12.87-29.57-9.41-5.07,1.06-8.44,5.34-6.53,10.49,1.43,5.12,8.47,8.36,12.67,11,3.72,2.1,7,3.23,9.22,7.13l.07.13c1.48,3.17.89,6,4.35,8.33,8.11,5.93,18.22-3.49,27.45-3.21,6.51.19,6.33,7,14.15,8.91s5.21-5,21.47,1.3a1.14,1.14,0,0,0,1.47-.65h0a1.14,1.14,0,0,0-.24-1.19C87.67,309.65,92.9,304.88,82.31,299.8Z"/><path class="cls-15" d="M82.31,299.8c-7.19-3.46-10.64-12.66-16.55-14.64-7.32-2.53-9.38,5.65-21.21,3.63-9.94-1.7-13-12.87-29.57-9.41-5.07,1.06-8.44,5.34-6.53,10.49,1.43,5.12,8.47,8.36,12.67,11,3.72,2.1,7,3.23,9.22,7.13l.07.13c1.48,3.17.89,6,4.35,8.33,8.11,5.93,18.22-3.49,27.45-3.21,6.51.19,6.33,7,14.15,8.91s5.21-5,21.47,1.3a1.14,1.14,0,0,0,1.47-.65h0a1.14,1.14,0,0,0-.24-1.19C87.67,309.65,92.9,304.88,82.31,299.8Z"/><g class="cls-16"><path class="cls-10" d="M91.52,315.32c-6.19-3.2-9.76-9.94-16.27-12.6a11.48,11.48,0,0,0-4.62-.9c-2.27.05-4.49,1-6.77.74-3.27-.33-5.32-3.18-8.21-4.38-3.31-1.37-6.69.75-10.12-.08s-6.33-3.39-9.08-5.53a31.08,31.08,0,0,0-19.52-6.93c-.37,0-.21,1,.21,1,8,0,14.5,3.21,20.71,8,2.33,1.81,4.81,3.71,7.73,4.41,3.5.85,7-1.32,10.38.22,2.62,1.21,4.57,3.69,7.53,4.17,3.65.59,7-1.32,10.71-.17,7.07,2.21,10.78,9.6,17.21,12.93.45.23.44-.74.11-.91Z"/></g><path class="cls-17" d="M152.32,348.15c-23.66,2.5-27.44,4.54-33.11,2.09-7.23-3.12-14.83-2.35-22.11-5.34s-15.2-5.27-23-4c-2.46.4-5.18,1.4-5.53,4.28a4.73,4.73,0,0,0,.91,3.27c1.71,2.39,4.51,3.19,7.18,3.93l8.94,2.47a2.83,2.83,0,0,1-.26,5.52H85.3a21.57,21.57,0,0,1-7.51-.7C72.41,358.48,67,357,61.53,357c-6.66,0-13.71,2.39-17,8.6a11.42,11.42,0,0,0-1.19,7.21c1.16,6.87,7.58,9.16,13.27,8.64,4-.36,7.79-1.91,11.57-3.28,9.23-3.34,17.14.34,27,.6C122.22,379.51,152.32,348.15,152.32,348.15Z"/><path class="cls-12" d="M50.69,369.8c16.85-1.92,33.81-3.87,50-9,4.74-1.5,10.85-1.92,24.23-11.79"/><path class="cls-17" d="M78,272.11a9.52,9.52,0,0,0,1.76,1.09c2.89,1.42,6.2,1.62,8.5,4.22,1.54,1.63,2.37,3.82,3.52,5.76a10.48,10.48,0,0,0,.79,1.23c3.56,4.88,7.06,5.44,10.8,5.36,1.54,0,3.13-.18,4.76-.18a15.82,15.82,0,0,1,8,1.89,21.89,21.89,0,0,1,5.7,4.64,1.19,1.19,0,0,0,1.51.1,1.29,1.29,0,0,0,.59-1.31,18.06,18.06,0,0,0-5.32-9.68c-6.63-6.27-16.41-6.77-17-19.71-.12-2.77.46-4.74,0-6.71a7,7,0,0,0-1.69-3.11c-2-2.16-4.88-3.11-7.45-4.84-7-5-3.64-13.07-4.25-20.79-.41-6.3-6.08-10.4-10.71-14-5.79-4.26-5.78-11.95-9.69-17.66s-13.61-8-18.78-.34c-5.49,7.67-2.47,17.26-.9,25a18.05,18.05,0,0,0,2.08,5.48c2.89,5,7.85,8.65,12.14,12.92a30.72,30.72,0,0,1,6.38,9,26.39,26.39,0,0,1,2,6.28c.09.52.19,1,.29,1.54C72,263.72,73.21,268.52,78,272.11Z"/><g class="cls-16"><path class="cls-10" d="M53.33,198.21c.28,7.09.82,14.45,6.13,19.72,2.48,2.46,5.46,4.37,7.8,7A14.06,14.06,0,0,1,70.38,231a11.79,11.79,0,0,0,1.43,3.78,11.35,11.35,0,0,0,3.64,2.84,12.28,12.28,0,0,1,4.16,4.48c1.59,2.82,2.45,6,3.88,8.89a17.61,17.61,0,0,0,2.25,3.58c1.42,1.7,3.58,2.76,4.54,4.81,1.63,3.48.94,7.68,2.52,11.29,3.67,8.41,12.39,12.6,20.23,16.29.46.22.44-.75.11-.91-7.62-3.59-16.2-7.61-19.84-15.76C91.8,267,92.24,263.37,91.16,260s-4.22-4.59-6-7.34c-3.06-4.64-3.6-10.86-7.92-14.69-1.43-1.26-3.45-1.87-4.69-3.33-1.48-1.73-1.52-4.27-2.33-6.33A17.37,17.37,0,0,0,65,221.74c-3.1-2.69-6.54-5.05-8.46-8.8-2.29-4.46-2.44-9.68-2.64-14.59,0-.51-.64-.81-.61-.14Z"/></g><path class="cls-18" d="M108.1,289.59a15.82,15.82,0,0,1,8,1.89c.26-4,1.59-4.8,2.48-6.25-6.63-6.27-16.41-6.77-17-19.71-.12-2.77.46-4.74,0-6.71-2,4.15-5.52,5-5.25,9.24s5.83,8.42,6.83,13.93C104,286.53,105.72,287.69,108.1,289.59Z"/><path class="cls-5" d="M172.22,354.83c-4.47-1.77-10.44-2.49-13.3,1.37-2.4,3.23-1.16,7.81.5,11.47,1.4,3.1,3.18,6.24,6.13,7.92a17.48,17.48,0,0,0,6.68,1.77,160.16,160.16,0,0,0,19.37,1.12,40.58,40.58,0,0,1,22.79,7.72C206.42,371.4,187.26,360.77,172.22,354.83Z"/><path class="cls-13" d="M164.38,364.45c5.69.24,11.43.64,16.89,2.26s27.06,11.51,30.42,15.7"/><path class="cls-17" d="M390.61,244.74a9.11,9.11,0,0,0-.19,2c0,3.08,1.25,6,0,9.08-.74,2-2.27,3.66-3.44,5.46a10,10,0,0,0-.72,1.2c-2.66,5.12-1.66,8.36,0,11.53.69,1.3,1.49,2.6,2.18,4a15.14,15.14,0,0,1,1.79,7.68,20.94,20.94,0,0,1-1.55,6.86,1.14,1.14,0,0,0,.56,1.34,1.24,1.24,0,0,0,1.37-.05,17.27,17.27,0,0,0,6-8.67c2.55-8.35-1.18-16.94,9.65-23,2.32-1.29,4.26-1.62,5.76-2.84a6.67,6.67,0,0,0,1.94-2.77c1-2.64.59-5.51,1-8.44,1.29-8.06,9.65-8.68,16-12.49,5.22-3,6.32-9.63,7.41-15.12,1.19-6.78,7.78-10,11-15.82s1.08-15.07-7.7-16.23c-8.9-1.44-15.84,5.23-21.83,9.89a17.27,17.27,0,0,0-3.81,4.11c-3.1,4.63-4.06,10.41-5.9,15.9a29.38,29.38,0,0,1-5,9.28,25.24,25.24,0,0,1-4.53,4.37l-1.2.91C395.27,236.08,391.65,239.13,390.61,244.74Z"/><g class="cls-16"><path class="cls-10" d="M443.32,192c-6.13,3.35-12.09,7-14.25,14-1,3.2-1.35,6.61-2.72,9.69a13.58,13.58,0,0,1-3.79,4.79,9.4,9.4,0,0,0-2.81,3.3c-.67,1.6-.45,3.4-.8,5.07a12.7,12.7,0,0,1-2.45,5c-1.91,2.55-4.34,4.68-6.13,7.32-2,2.9-1.83,7-4.47,9.35-2.45,2.18-5.47,3.37-7.65,5.92-5.72,6.71-5.55,16.13-5.38,24.44,0,.51.63.81.61.14-.17-8.29-.35-17.84,5.73-24.31,2.22-2.37,5.4-3.48,7.61-5.82s2-5.75,3.66-8.4c2.91-4.69,8.29-8,9.18-13.79.4-2.58.37-4.63,2.42-6.55a28.8,28.8,0,0,0,3.17-3c1.86-2.37,2.61-5.37,3.28-8.24,1-4,2-7.9,4.94-11s6.59-5,10.18-7c.33-.18,0-1.13-.36-.91Z"/></g><path class="cls-14" d="M364.77,368.18c6.81,3.84,9.59,13.07,15.24,15.38,7,2.95,9.53-4.92,21-2.18,9.61,2.3,11.84,13.42,28.31,11.11,5-.71,8.6-4.68,7.06-9.83-1.06-5.1-7.75-8.72-11.68-11.54-3.5-2.29-6.65-3.61-8.55-7.57l-.06-.13c-1.25-3.2-.48-5.93-3.72-8.42-7.55-6.33-18,2.24-27,1.38-6.35-.61-5.74-7.21-13.27-9.62s-5.42,4.56-20.91-2.65a1.11,1.11,0,0,0-1.48.54h0a1.11,1.11,0,0,0,.16,1.18C360.17,358.2,354.75,362.53,364.77,368.18Z"/><path class="cls-15" d="M364.77,368.18c6.81,3.84,9.59,13.07,15.24,15.38,7,2.95,9.53-4.92,21-2.18,9.61,2.3,11.84,13.42,28.31,11.11,5-.71,8.6-4.68,7.06-9.83-1.06-5.1-7.75-8.72-11.68-11.54-3.5-2.29-6.65-3.61-8.55-7.57l-.06-.13c-1.25-3.2-.48-5.93-3.72-8.42-7.55-6.33-18,2.24-27,1.38-6.35-.61-5.74-7.21-13.27-9.62s-5.42,4.56-20.91-2.65a1.11,1.11,0,0,0-1.48.54h0a1.11,1.11,0,0,0,.16,1.18C360.17,358.2,354.75,362.53,364.77,368.18Z"/><g class="cls-16"><path class="cls-10" d="M356.8,352.42c6,3.65,9.16,10.92,15.8,13.68,3.59,1.49,6.81-.06,10.43.57,3.28.57,5.06,3.64,8,4.92,3.09,1.37,6.48-.37,9.68.62,3.44,1.07,6.1,3.86,8.73,6.18a30.24,30.24,0,0,0,18.37,7.83c.45,0,.32-1-.05-1-7.86-.5-14-4-19.74-9.14a23,23,0,0,0-6.7-4.64c-3.54-1.37-7.45.72-10.76-1.08-2.38-1.29-4-3.74-6.72-4.51-3.47-1-7,.75-10.54-.48-7-2.43-10.21-10.17-16.35-13.89-.43-.26-.42.72-.11.91Z"/></g><path class="cls-5" d="M121.46,349.53s-29.69-6.5-52.53-4.05c-.72.08.16-4.42.16-4.42s-4.7,5-5.89,5.18c-12.56,2-24.8,6.33-33.14,14.81,0,0,15.19-62.41,98.4-53.13Z"/><path class="cls-6" d="M138.72,352.87s-13.3-6-29.91-18.94c-.66-.52,2.35-4.5,2.35-4.5s-6.62,1.08-7.77.11c-19-16-40.81-40.74-51.78-75.54,0,0,18.23.77,43.74,10.09,1.09.4,4,5.84,4,5.84s1.19-3.87,2.15-3.48a208.55,208.55,0,0,1,77.6,54.78Z"/><g class="cls-7"><path class="cls-5" d="M51.61,254.85A306,306,0,0,1,84,271.92c10.52,6.25,20.66,13.11,30.55,20.31,5,3.57,9.7,7.46,14.52,11.22l7,5.91c1.16,1,2.35,2,3.5,3l3.37,3.11a299.5,299.5,0,0,1,25.63,26.2l-6.46-6.49L159,331.89c-1.09-1.06-2.23-2.08-3.34-3.13L149,322.49l-6.87-6c-4.54-4.07-9.33-7.84-14-11.75-4.83-3.71-9.58-7.53-14.55-11.05-9.76-7.29-19.88-14.1-30.21-20.58q-7.74-4.87-15.67-9.43T51.61,254.85Z"/><path class="cls-5" d="M121.22,298.27c-3-.74-6-1.39-9-2.06s-6-1.23-9-1.72-6.06-.87-9.11-1.17S87.9,293,84.78,293a40.44,40.44,0,0,1,9.3-1,61.59,61.59,0,0,1,9.34.8A65.6,65.6,0,0,1,121.22,298.27Z"/><path class="cls-5" d="M92,278.26c-2.15-.13-4.29-.21-6.42-.29s-4.26-.1-6.39-.06-4.24.16-6.36.33-4.22.5-6.35.9a28,28,0,0,1,6.22-1.85,42.7,42.7,0,0,1,6.47-.6A45.48,45.48,0,0,1,92,278.26Z"/><path class="cls-5" d="M147.58,320.42a58.78,58.78,0,0,0-8.25-2.81,54,54,0,0,0-8.47-1.57,51.09,51.09,0,0,0-8.6-.27,75.43,75.43,0,0,0-8.67,1,32.77,32.77,0,0,1,8.54-2.34,35.21,35.21,0,0,1,8.92-.11,36.63,36.63,0,0,1,8.68,2A29.47,29.47,0,0,1,147.58,320.42Z"/><path class="cls-5" d="M121.22,298.27a114.16,114.16,0,0,0-7-10.52c-1.23-1.68-2.57-3.28-4-4.84s-2.88-3-4.37-4.6a23.81,23.81,0,0,1,5.35,3.62,30.84,30.84,0,0,1,4.4,4.76,34.37,34.37,0,0,1,3.39,5.51A25.19,25.19,0,0,1,121.22,298.27Z"/><path class="cls-5" d="M147.25,319.83c-1.15-2.31-2.34-4.57-3.5-6.83s-2.4-4.47-3.69-6.64-2.67-4.28-4.11-6.35a75.84,75.84,0,0,0-4.8-5.94,28,28,0,0,1,5.88,5.07,44.65,44.65,0,0,1,4.56,6.31A47.62,47.62,0,0,1,147.25,319.83Z"/></g><g class="cls-16"><path class="cls-10" d="M42.83,347.39c3.79-5.17,9-9.19,14.5-12.45a69.41,69.41,0,0,1,17.87-7.16l4.72-1c1.57-.35,3.18-.46,4.77-.69a79.23,79.23,0,0,1,9.6-.63c1.6-.1,3.2.06,4.8.12l4.79.23c3.17.4,6.34.84,9.48,1.34-3.2-.1-6.36-.36-9.53-.47l-4.76,0c-1.58,0-3.17-.06-4.74.13-3.15.3-6.32.35-9.42.93-1.55.26-3.14.37-4.67.73l-4.61,1A80.63,80.63,0,0,0,58,336.13a47,47,0,0,0-4.11,2.34c-.66.42-1.35.83-2,1.27L50,341.12A46,46,0,0,0,42.83,347.39Z"/></g><g class="cls-16"><path class="cls-10" d="M94.19,326.26c-1.73,2.76-3.42,5.37-4.82,8.13a32.64,32.64,0,0,0-3.13,8.79,14.31,14.31,0,0,1,1.55-9.6,21.81,21.81,0,0,1,2.75-4.07A16.43,16.43,0,0,1,94.19,326.26Z"/></g><rect class="cls-19" x="225.32" y="346.3" width="49.18" height="33.82"/><rect class="cls-9" x="225.32" y="346.3" width="49.18" height="12.26"/><path class="cls-19" d="M299.82,379.59H200A5.71,5.71,0,1,0,200,391h99.82a5.71,5.71,0,0,0,5.71-5.71h0A5.71,5.71,0,0,0,299.82,379.59Z"/><path class="cls-9" d="M305.53,385.3a5.71,5.71,0,0,1-5.71,5.7H200a5.71,5.71,0,0,1-5.71-5.7,5,5,0,0,1,.18-1.38,5.69,5.69,0,0,0,5.53,4.33h99.82a5.69,5.69,0,0,0,5.53-4.33A5,5,0,0,1,305.53,385.3Z"/><rect class="cls-3" x="92.53" y="140.79" width="314.74" height="210.23" rx="3.5" ry="3.5"/><path class="cls-19" d="M403.78,143.29a1,1,0,0,1,1,1V347.51a1,1,0,0,1-1,1H96a1,1,0,0,1-1-1V144.29a1,1,0,0,1,1-1H403.78m0-5H96a6,6,0,0,0-6,6V347.51a6,6,0,0,0,6,6H403.78a6,6,0,0,0,6-6V144.29a6,6,0,0,0-6-6Z"/><path class="cls-19" d="M409.78,347.1V327.23H90V347.1a6.77,6.77,0,0,0,6.77,6.77H403A6.77,6.77,0,0,0,409.78,347.1Z"/><circle class="cls-4" cx="249.91" cy="184.16" r="24.65"/><g class="cls-20"><path class="cls-5" d="M259.43,178.54a9.52,9.52,0,1,1-9.52-9.52A9.52,9.52,0,0,1,259.43,178.54Zm4.85,39.88V201.77a11.45,11.45,0,0,0-11.45-11.45H247a11.45,11.45,0,0,0-11.45,11.45v16.64a3.17,3.17,0,0,0,3.17,3.17h22.4A3.17,3.17,0,0,0,264.28,218.42Z"/></g><path class="cls-4" d="M308.87,236.84H190.94a9.75,9.75,0,0,1-9.75-9.75h0a9.75,9.75,0,0,1,9.75-9.75H308.87a9.75,9.75,0,0,1,9.75,9.75h0A9.75,9.75,0,0,1,308.87,236.84Z"/><path class="cls-5" d="M304.78,229.64H195a2.55,2.55,0,0,1-2.55-2.55h0a2.55,2.55,0,0,1,2.55-2.55H304.78a2.55,2.55,0,0,1,2.55,2.55h0A2.55,2.55,0,0,1,304.78,229.64Z"/><path class="cls-4" d="M309,271.92H191a9.75,9.75,0,0,1-9.75-9.75h0a9.75,9.75,0,0,1,9.75-9.75H309a9.75,9.75,0,0,1,9.75,9.75h0A9.75,9.75,0,0,1,309,271.92Z"/><path class="cls-5" d="M194,264.89h0a2.55,2.55,0,0,1-2.55-2.55h0a2.55,2.55,0,0,1,2.55-2.55h0a2.55,2.55,0,0,1,2.55,2.55h0A2.55,2.55,0,0,1,194,264.89Zm10.12-2.55h0a2.55,2.55,0,0,0-2.55-2.55h0a2.55,2.55,0,0,0-2.55,2.55h0a2.55,2.55,0,0,0,2.55,2.55h0A2.55,2.55,0,0,0,204.17,262.34Zm7.57,0h0a2.55,2.55,0,0,0-2.55-2.55h0a2.55,2.55,0,0,0-2.55,2.55h0a2.55,2.55,0,0,0,2.55,2.55h0A2.55,2.55,0,0,0,211.74,262.34Zm7.57,0h0a2.55,2.55,0,0,0-2.55-2.55h0a2.55,2.55,0,0,0-2.55,2.55h0a2.55,2.55,0,0,0,2.55,2.55h0A2.55,2.55,0,0,0,219.31,262.34Zm7.57,0h0a2.55,2.55,0,0,0-2.55-2.55h0a2.55,2.55,0,0,0-2.55,2.55h0a2.55,2.55,0,0,0,2.55,2.55h0A2.55,2.55,0,0,0,226.89,262.34Zm7.57,0h0a2.55,2.55,0,0,0-2.55-2.55h0a2.55,2.55,0,0,0-2.55,2.55h0a2.55,2.55,0,0,0,2.55,2.55h0A2.55,2.55,0,0,0,234.46,262.34Zm7.57,0h0a2.55,2.55,0,0,0-2.55-2.55h0a2.55,2.55,0,0,0-2.55,2.55h0a2.55,2.55,0,0,0,2.55,2.55h0A2.55,2.55,0,0,0,242,262.34Z"/><path class="cls-5" d="M266.65,308.67h-33.5a9.75,9.75,0,0,1-9.75-9.75h0a9.75,9.75,0,0,1,9.75-9.75h33.5a9.75,9.75,0,0,1,9.75,9.75h0A9.75,9.75,0,0,1,266.65,308.67Z"/><path class="cls-21" d="M373.55,353.33V342.18a6.64,6.64,0,0,0-6.64-6.64h-.58V325.21a27.54,27.54,0,0,0-55.08,0v10.33h-.58a6.64,6.64,0,0,0-6.64,6.64v11.15Zm-53.2-28.12a18.44,18.44,0,0,1,36.88,0v10.33H320.35Z"/><path class="cls-21" d="M386.57,248.86a17.57,17.57,0,0,0-10-3.95c0-.37,0-.73,0-1.2,2-.33,3.78-2.11,4.8-4.51,2.75-2.65,4.62-5.93,3.71-10.06a.8.8,0,0,1,.1-.61c-1.18-2.12-3.36-3.13-5.78-5.32-8.13-7.37-17.79,2.87-14.13,7.08a7.58,7.58,0,0,1,1,2.32l0,.07a3.5,3.5,0,0,0,.6,2.78,12,12,0,0,1,.07,1.25.74.74,0,0,1,0,.12,5,5,0,0,0,.68,1.73,6.46,6.46,0,0,0,4.14,4.86c.19.06.39.13.6.18a3,3,0,0,1,.09,1.33,16,16,0,0,0-6.51,2.18c-15.54,7.51-30.91,31.72-29.21,37.06s6,11.59,8.88,15.76l.45-.08.7,2.41A1.67,1.67,0,0,0,349,303.7a3,3,0,0,0,1.95-.55,2.07,2.07,0,0,0,.57-1A4.39,4.39,0,0,0,351,299l.34-.06s-6.7-10-6.46-16.14c.09-2.23,5.32-7.5,9.57-11.42-.1,1.36-.15,2.75-.15,4.15l-2,48.72s1.76.35,4.58.8l2.74,29.1h11l.26-27.41.43,0,.38,0,1.63.11.55,0,.59,0,1.08,27.18h10.86l2.22-27.68h0l1.32-.24.56-.12,1.06-.26.55-.15c.35-.1.68-.21,1-.32l.45-.16c.46-.17.91-.36,1.32-.56l-.22-52.7c0-1.14,0-2.24-.1-3.32l0-.24q-.1-1.51-.28-2.93l0-.28,0-.26c2.15.43,4.94.94,8.6,1.56a15.59,15.59,0,0,0,6.9-.43V255.38C400.64,256.42,390.45,251.21,386.57,248.86Z"/><circle class="cls-22" cx="238.22" cy="261.36" r="16.94"/><circle class="cls-23" cx="238.22" cy="261.36" r="9.19"/><path class="cls-24" d="M331.92,297.67a27.57,27.57,0,0,0-27.54,27.54V351.7h55.08V325.21A27.57,27.57,0,0,0,331.92,297.67ZM313.48,342.6V325.21a18.44,18.44,0,0,1,36.88,0V342.6Z"/><path class="cls-25" d="M331.92,303.11a22,22,0,0,0-22,22v21.15h44V325.11A22,22,0,0,0,331.92,303.11Zm18.44,39.48H313.48V325.21a18.44,18.44,0,0,1,36.88,0Z"/><rect class="cls-26" x="297.16" y="335.54" width="69.52" height="55.46" rx="6.77" ry="6.77"/><path class="cls-24" d="M342,359.43a10.11,10.11,0,1,0-14.76,9v10.93h9.3V368.4A10.1,10.1,0,0,0,342,359.43Z"/><path class="cls-27" d="M360,335.54h-16.7A104,104,0,0,1,326.8,367c-6.72,8.73-17.29,19.8-29.26,19.57A6.64,6.64,0,0,0,303.8,391H360a6.64,6.64,0,0,0,6.64-6.64V342.18A6.64,6.64,0,0,0,360,335.54Z"/><path class="cls-28" d="M338.64,297.68l1.33,4.58a1.67,1.67,0,0,0,2.16,1.44,3,3,0,0,0,1.95-.55,2.07,2.07,0,0,0,.57-1,4.49,4.49,0,0,0-.63-3.33,13.34,13.34,0,0,0-2.26-2.63"/><path class="cls-28" d="M421,245a36.59,36.59,0,0,1,2.18-6.21,3,3,0,0,1,.34,2.21,5,5,0,0,1,2.44-2.57.52.52,0,0,1,.41-.06.53.53,0,0,1,.25.39,7,7,0,0,1-4.2,8.26"/><path class="cls-5" d="M376,387.31c3.89.95,7.15,2.09,8.93,3.7h-15l.29-3.48Z"/><path class="cls-5" d="M357.64,387.31c-3.89.95-7.15,2.09-8.93,3.7h15l-.29-3.48Z"/><path class="cls-29" d="M383.87,299.92l-7.07,88a24.08,24.08,0,0,1-3.32.6,14.83,14.83,0,0,1-1.94-.27c-.82-.17-1.53-.33-1.53-.33l-2.65-66.52H364l-.64,66.52a14.4,14.4,0,0,1-3.61.53,19.29,19.29,0,0,1-3.91-.53l-8.49-90.25Z"/><g class="cls-30"><path class="cls-31" d="M370.31,299.08l-12.45-.77c-.15,16.21,2.29,74.13,2.54,90.11a14.9,14.9,0,0,0,3-.51L364,321.4h3.32L370,387.92s.71.17,1.53.33l.73.13C372.26,370.26,370.63,306.53,370.31,299.08Z"/></g><path class="cls-32" d="M360.1,236.72a.74.74,0,0,1,0,.12c.54,2.91,3.3,4.4,6.37,5.25,2.5.69,3.07,1,5.08-.46,4.16-3,7.85-7,6.65-12.48a.8.8,0,0,1,.1-.61c-1.18-2.12-3.36-3.13-5.78-5.32-8.13-7.37-17.79,2.87-14.13,7.08A13,13,0,0,1,360.1,236.72Z"/><path class="cls-33" d="M387.83,271.95c0-16.73-6.92-27.13-20.18-27.13s-20.22,14-20.22,30.72l-2,48.72s30.91,6.13,42.66.39Z"/><path class="cls-34" d="M387.83,271.95a43.94,43.94,0,0,0-1.61-12.46c-1.18,18.2-2.77,66.67-29.87,66.48,10.07,1.26,24.49,2.21,31.7-1.31Z"/><path class="cls-28" d="M374.45,234.75c-.5-3.29-3.43-6.59-7-4.88a7.24,7.24,0,0,1-6.55.22c-.06.63-.13,1.56-.2,2.53-.4-.73-1.06-.84-1.26.07s.05,2.78,1.1,3.12c0,.17,0,.34,0,.48,0,2.46,1.05,6.38,5,7.31a4,4,0,0,1-.11,2.31c.22.77,3.33,1.27,4.35.36a18.31,18.31,0,0,1-.08-2.56c2.36-.38,4.33-2.71,5.22-5.7C378.52,236,376,232.38,374.45,234.75Z"/><path class="cls-35" d="M374.45,234.75a7.33,7.33,0,0,0-1.62-3.59c.1,5.72-2.34,11-7.86,12.27.19.06.39.13.6.18a4,4,0,0,1-.11,2.31c.22.77,3.33,1.27,4.35.36a18.31,18.31,0,0,1-.08-2.56c2.36-.38,4.33-2.71,5.22-5.7C378.52,236,376,232.38,374.45,234.75Z"/><path class="cls-33" d="M359.15,247.11c-15.54,7.51-30.91,31.72-29.21,37.06s6,11.59,8.88,15.76l5.65-1s-6.7-10-6.45-16.14c.15-3.77,15-16.19,15-16.19Z"/><path class="cls-33" d="M378.3,248c2.43,1.75,22.74,13.92,33.91,3.17,8.07-7.76,8.88-9.26,8.88-9.26l2.77,4.9S411.23,269,396,266.47s-15.65-3.37-15.65-3.37Z"/><path class="cls-21" d="M127.28,343.27a24.45,24.45,0,0,0-13.88,10.49h41.25a24.45,24.45,0,0,0-13.88-10.49V242.21H127.28v1.65H112.87V256h14.41v2.9H112.87v12.17h14.41Z"/><rect class="cls-26" x="121.71" y="243.85" width="17.28" height="12.17" transform="translate(260.7 499.87) rotate(180)"/><rect class="cls-26" x="121.71" y="258.92" width="17.28" height="12.17" transform="translate(260.7 530) rotate(180)"/><rect class="cls-36" x="134.58" y="243.85" width="4.41" height="12.17" transform="translate(273.57 499.87) rotate(180)"/><rect class="cls-36" x="134.58" y="258.92" width="4.41" height="12.17" transform="translate(273.57 530) rotate(180)"/><rect class="cls-26" x="136.11" y="242.21" width="13.49" height="105.74" transform="translate(285.72 590.15) rotate(180)"/><rect class="cls-36" x="141.83" y="245.85" width="2.06" height="105.74" rx="0.82" ry="0.82" transform="translate(285.72 597.43) rotate(180)"/><path class="cls-26" d="M118.52,366.66A24.35,24.35,0,1,1,142.86,391,24.37,24.37,0,0,1,118.52,366.66Zm12.55,0a11.79,11.79,0,1,0,11.79-11.79A11.81,11.81,0,0,0,131.07,366.66Z"/><path class="cls-36" d="M129.92,366.66a12.94,12.94,0,1,0,12.94-12.94A13,13,0,0,0,129.92,366.66Zm1.15,0a11.79,11.79,0,1,1,11.79,11.79A11.81,11.81,0,0,1,131.07,366.66Z"/><path class="cls-21" d="M231.4,264.89c-4.27,3.78-19.66,19.9-22.48,11.13-2.23-6.95-6.92-16.5-9.66-19.71a13.11,13.11,0,0,0-6.66-4.08v-1.11c2.67,0,6.84-.53,6.84-10.15a17.25,17.25,0,0,0-.78-6.08,2.94,2.94,0,0,0,.18-3.31c-.75-1.23-2.71-2.3-4-2.88-3.09-1.37-7.12-2-10.08-.09a12.82,12.82,0,0,0-3.72-3.25A9,9,0,0,0,177,224c-2.85-.06-5.32,2.13-6.63,4.65a10.39,10.39,0,0,0-1.13,6.7,7.48,7.48,0,0,0,4,5.35,3.57,3.57,0,0,0,2,.39,4.08,4.08,0,0,0,2.27-1.37c1.52-1.58,1.78-3.47,2.89-5.18a1.9,1.9,0,0,1,.62-.58,12.33,12.33,0,0,0-.52,3.43,20.49,20.49,0,0,0,2.67,9.49,5.49,5.49,0,0,0,1.59,2.08c.7.48,2.49,1,3.23.48l-.31,2.36a17.07,17.07,0,0,0-6.26,1.83h0c-11.57,2.66-20.3,31.07-35.77,29.18v0c-1.88-.52-3.95-.67-4.06,1.17-.21,3.61,2,4.07,4.06,3.77v.08a29.53,29.53,0,0,0,22.61-10.21c-4.16,23.46-2.5,54.19-2.5,54.19,1.12.16,2.23.31,3.33.44l1.9,21.5h9.85l0-20.51c2,.08,4,.12,5.92.11l.23,20.4h11.43l2.21-21.4c2-.28,4-.63,6-1-.41-12.9-.46-29.77-1.32-44.38a4.74,4.74,0,0,0,2.12,1.21c1.34.33,7.13,7,11.29,1.93s13-15.76,16.27-21.24C234.23,267.09,232.37,266.56,231.4,264.89Z"/><polygon class="cls-37" points="193.89 248.6 193.24 253.58 198.48 254.16 198.48 248.91 193.89 248.6"/><path class="cls-38" d="M153.53,285s-6.93-3.42-7.13,0c-.38,6.47,7.13,2.82,7.13,2.82Z"/><path class="cls-28" d="M154.51,284s-6.93-3.42-7.13,0c-.38,6.47,7.13,2.82,7.13,2.82Z"/><path class="cls-28" d="M189.16,241c0,4.53,4.67,10.16,9.2,10.16,2.66,0,7-.4,7-10.16,0-10.26-3.44-8.19-8-8.19A8.19,8.19,0,0,0,189.16,241Z"/><path class="cls-35" d="M196,244.77a35.66,35.66,0,0,1,1.91-12h-.6a8.19,8.19,0,0,0-8.19,8.19c0,4.44,4.5,9.93,8.94,10.14A9.14,9.14,0,0,1,196,244.77Z"/><path class="cls-26" d="M203.59,235.48c-.72.11-1.5-.24-2.18,0-1.09.44-1.16,2.1-2.17,2.71-1.25.76-3.14-.56-4.24.42-.65.58-.57,1.59-.5,2.46a18.48,18.48,0,0,1-.75,6.8c-.16.51.52,1.42.12,1.77-.67.58-2.6.07-3.32-.43a5.54,5.54,0,0,1-1.59-2.1,20.85,20.85,0,0,1-2.67-9.58,10.86,10.86,0,0,1,4.1-8.75c3-2.13,7.15-1.49,10.32-.07,1.3.58,3.27,1.66,4,2.91S205.34,235.22,203.59,235.48Z"/><path class="cls-36" d="M202.73,229.82c-1.07,1-2.14,2.68-2.95,3.24a12.46,12.46,0,0,1-3.71,1.32c-5.83,1.79-6.23,10.73-3.69,15.5a2,2,0,0,0,1.49-.21c.4-.35-.27-1.26-.12-1.77a18.48,18.48,0,0,0,.75-6.8c-.07-.87-.14-1.88.5-2.46,1.1-1,3,.34,4.24-.42,1-.61,1.08-2.27,2.17-2.71.68-.27,1.46.07,2.18,0,1.75-.26,1.87-2.61,1.13-3.83A6.27,6.27,0,0,0,202.73,229.82Z"/><path class="cls-26" d="M186.91,225.37a8.93,8.93,0,0,0-4.07-1.32c-2.85-.06-5.32,2.15-6.63,4.7a10.59,10.59,0,0,0-1.13,6.77,7.55,7.55,0,0,0,4,5.41,3.54,3.54,0,0,0,2,.39,4.07,4.07,0,0,0,2.27-1.38c1.52-1.6,1.78-3.5,2.89-5.23.9-1.4,2.88-.82,4.21-1.73C193.75,230.64,189,226.51,186.91,225.37Z"/><path class="cls-36" d="M188.42,231.53c-.61-.31-1.09-.88-1.69-1.19-.86-.94-5.29-1.43-6.21,4.73a7.32,7.32,0,0,1-3.15,4.66,6.53,6.53,0,0,0,1.69,1.18,3.54,3.54,0,0,0,2,.39,4.07,4.07,0,0,0,2.27-1.38c1.52-1.6,1.78-3.5,2.89-5.23.9-1.4,2.88-.82,4.21-1.73a2.68,2.68,0,0,0,1-1.08A3.57,3.57,0,0,1,188.42,231.53Z"/><path class="cls-24" d="M185.5,387.31c3.89.95,7.15,2.09,8.93,3.7h-15l.29-3.48Z"/><path class="cls-24" d="M198.95,387.31c3.89.95,7.15,2.09,8.93,3.7h-15l.29-3.48Z"/><path class="cls-38" d="M237.83,261.53a2,2,0,0,0-.31-.14A1.92,1.92,0,0,0,236,262a25.88,25.88,0,0,0-3,2.62h0a3.63,3.63,0,0,0-.58.65,2.43,2.43,0,0,0-.18,2.6A2.2,2.2,0,0,0,234,268.9a4.64,4.64,0,0,0,3.15-1.38,2.2,2.2,0,0,0,.14-2.67,2.16,2.16,0,0,0-1.38-1.14,11.67,11.67,0,0,0,1.79-1.32A1,1,0,0,0,238,262,.38.38,0,0,0,237.83,261.53Z"/><path class="cls-28" d="M237.47,263.7a2.2,2.2,0,0,1-.14,2.67,4.64,4.64,0,0,1-3.15,1.38,2.2,2.2,0,0,1-1.79-1.05,2.43,2.43,0,0,1,.18-2.6C233.67,262.51,236.36,261.63,237.47,263.7Z"/><path class="cls-28" d="M235.71,262.81a11.67,11.67,0,0,0,2.17-1.56,1,1,0,0,0,.32-.41.38.38,0,0,0-.14-.46,2,2,0,0,0-.31-.14,1.92,1.92,0,0,0-1.55.58,25.87,25.87,0,0,0-3,2.62A5.41,5.41,0,0,0,235.71,262.81Z"/><path class="cls-24" d="M216.61,276.58a133.62,133.62,0,0,0,15-12.14.76.76,0,0,1,1.09.08c.92,1.1,2.43,2.73,2.27,3.42a2.34,2.34,0,0,1-.62,1l-14.11,15.63a15.41,15.41,0,0,1-3,2.81,5.2,5.2,0,0,1-3.95.83c-2.26-.56-3.53-2.89-4.76-4.87-6.08-9.76-5.08-13.29-4.33-16.29.52-2.09,1.17-4.15,1.55-6.28.12-.67-1.49-4.4-.57-4.45,2.74,3.21,6.86,13,9.66,19.71A1.23,1.23,0,0,0,216.61,276.58Z"/><path class="cls-39" d="M172.72,307.78,179.79,388a26.2,26.2,0,0,0,3.32.55,16.19,16.19,0,0,0,1.94-.25c.82-.15,1.53-.3,1.53-.3l.07-60.62h5.85L193.2,388a15.68,15.68,0,0,0,3.61.48,21,21,0,0,0,3.91-.48l8.49-82.24Z"/><path class="cls-40" d="M190.91,313.79c0,2.72-.15,5.17.8,7.63a4.78,4.78,0,0,0,4.82,3.14c3.5-.07,5.93-2,5.94-5.52,0-.46.23-5.25.45-5.26Z"/><path class="cls-40" d="M174.31,313.8a30.39,30.39,0,0,0,.59,7.64c.52,1.93,1.7,3.2,3.37,3.16,2.44-.05,3.8-2.77,4.11-5.49.05-.45.13-5.25.29-5.26Z"/><path class="cls-41" d="M186.66,327.35h0a.15.15,0,0,0,.12-.17c-.94-5.45-.29-15.88-.29-16a.15.15,0,0,0,0-.11.16.16,0,0,0-.11,0c-.09,0-9.44.44-13.36-.55a.15.15,0,0,0-.07.28c3.67.93,12,.62,13.28.57-.08,1.35-.58,10.78.3,15.89A.15.15,0,0,0,186.66,327.35Z"/><path class="cls-41" d="M187.83,327.35h0a.15.15,0,0,0,.13-.16,87.26,87.26,0,0,1-.21-15.8,124,124,0,0,0,20.12-2.18A.15.15,0,0,0,208,309a.14.14,0,0,0-.17-.12,123.17,123.17,0,0,1-20.2,2.17.14.14,0,0,0-.14.13,87.14,87.14,0,0,0,.19,16A.15.15,0,0,0,187.83,327.35Z"/><g class="cls-42"><path class="cls-43" d="M185.06,388.28c.82-.15,1.53-.3,1.53-.3l.07-60.62h.49a.35.35,0,0,0-.49-.15,6.08,6.08,0,0,0-2.4,2.25,4.65,4.65,0,0,0-.91,2.63C182.88,350.77,184,365,185.06,388.28Z"/></g><path class="cls-41" d="M200.11,386.29a.15.15,0,0,1-.13-.16l.12-1.2a.14.14,0,0,1,.16-.13.15.15,0,0,1,.13.16l-.12,1.2a.15.15,0,0,1-.15.13Zm.36-3.53a.15.15,0,0,1-.13-.16l.24-2.33a.14.14,0,0,1,.16-.13.15.15,0,0,1,.13.16l-.24,2.33a.15.15,0,0,1-.15.13Zm.48-4.66a.15.15,0,0,1-.13-.16l.24-2.33a.14.14,0,0,1,.16-.13.15.15,0,0,1,.13.16l-.24,2.33a.15.15,0,0,1-.15.13Zm.48-4.66a.15.15,0,0,1-.13-.16l.24-2.33c0-.08.09-.15.16-.13a.15.15,0,0,1,.13.16l-.24,2.33a.15.15,0,0,1-.15.13Zm.48-4.66a.15.15,0,0,1-.13-.16l.24-2.33a.14.14,0,0,1,.16-.13.15.15,0,0,1,.13.16l-.24,2.33a.15.15,0,0,1-.15.13Zm.48-4.66a.15.15,0,0,1-.13-.16l.24-2.33a.13.13,0,0,1,.16-.13.15.15,0,0,1,.13.16l-.24,2.33a.15.15,0,0,1-.15.13Zm.48-4.66a.15.15,0,0,1-.13-.16L203,357a.14.14,0,0,1,.16-.13.15.15,0,0,1,.13.16l-.24,2.33a.15.15,0,0,1-.15.13Zm.48-4.66a.15.15,0,0,1-.13-.16l.24-2.33c0-.08.08-.16.16-.13a.15.15,0,0,1,.13.16l-.24,2.33a.15.15,0,0,1-.15.13Zm.48-4.66a.15.15,0,0,1-.13-.16l.24-2.33a.14.14,0,0,1,.16-.13.15.15,0,0,1,.13.16L204,350a.15.15,0,0,1-.15.13Zm.48-4.66a.15.15,0,0,1-.13-.16l.24-2.33a.15.15,0,0,1,.15-.13h0a.15.15,0,0,1,.13.16l-.24,2.33a.15.15,0,0,1-.15.13Zm.48-4.66a.15.15,0,0,1-.13-.16l.24-2.33c0-.08.09-.15.16-.13a.15.15,0,0,1,.13.16l-.24,2.33a.15.15,0,0,1-.15.13Zm.48-4.66a.15.15,0,0,1-.13-.16l.24-2.33a.14.14,0,0,1,.16-.13.15.15,0,0,1,.13.16l-.24,2.33a.15.15,0,0,1-.15.13Zm.48-4.66a.15.15,0,0,1-.13-.16l.24-2.33a.14.14,0,0,1,.16-.13.15.15,0,0,1,.13.16l-.24,2.33a.15.15,0,0,1-.15.13Zm.48-4.66a.15.15,0,0,1-.13-.16l.24-2.33a.14.14,0,0,1,.16-.13.15.15,0,0,1,.13.16l-.24,2.33a.15.15,0,0,1-.15.13Zm.48-4.66a.15.15,0,0,1-.13-.16l.24-2.33c0-.08.09-.16.16-.13a.15.15,0,0,1,.13.16l-.24,2.33a.15.15,0,0,1-.15.13Zm.48-4.66a.15.15,0,0,1-.13-.16l.24-2.33a.14.14,0,0,1,.16-.13.15.15,0,0,1,.13.16l-.24,2.33a.15.15,0,0,1-.15.13Zm.48-4.66a.15.15,0,0,1-.13-.16l.24-2.33c0-.08.08-.16.16-.13a.15.15,0,0,1,.13.16l-.24,2.33a.15.15,0,0,1-.15.13Z"/><path class="cls-24" d="M187.21,253.65c-11.57,2.66-20.3,31.07-35.77,29.18v5.05c7.24,0,17.13-2.31,25.24-13.43C188.41,258.39,187.21,253.65,187.21,253.65Z"/><path class="cls-44" d="M187.21,253.65c-11.57,2.66-20.3,31.07-35.77,29.18v5.05c7.24,0,17.13-2.31,25.24-13.43C188.41,258.39,187.21,253.65,187.21,253.65Z"/><path class="cls-24" d="M205.14,256.31c7.1,8.14,6.51,49.42,7.32,75.06-12.8,2.69-26.53,2.57-40.91.5,0,0-2.24-41.31,5-64.71C181.4,251.28,197.64,247.72,205.14,256.31Z"/><path class="cls-44" d="M181.35,310.75a90.89,90.89,0,0,1-3.83-26.84c0-7.67.21-16,2.22-23.56a25.23,25.23,0,0,0-3.23,6.8c-7.2,23.4-5,64.71-5,64.71a140.17,140.17,0,0,0,21.27,1.53A68.56,68.56,0,0,1,181.35,310.75Z"/><path class="cls-15" d="M68.31,243.42c1-.06,8.16-5.33,10.91-7.11a7.49,7.49,0,0,0,2.09-1.77,2.64,2.64,0,0,0,.4-2.6,3.28,3.28,0,0,0-3.33-2.06c-3.55,0-4.78,1.17-6.5,3C66.17,238.74,68.31,243.42,68.31,243.42Z"/><path class="cls-15" d="M100.23,264.69c3.1,1.39,6.41,2.78,9.78,2.35,1.31-.17,2.73-.76,3.17-2a2.93,2.93,0,0,0-1-3,7,7,0,0,0-3-1.38c-4.13-1-9.92-.45-14,.71A36,36,0,0,0,100.23,264.69Z"/><path class="cls-15" d="M120.64,218.9c-1.38-.87-2.91-2-2.91-3.68s1.71-2.89,3.35-2.9a6.87,6.87,0,0,1,4.39,2c5.22,4.58,4.57,9.8,4.57,9.8S122.18,219.87,120.64,218.9Z"/><path class="cls-15" d="M124.76,204.93a6.71,6.71,0,0,1-3.18-2.26,2.16,2.16,0,0,1-.33-1.83c.36-1,1-1.93,3.55-1.46,8.1,1.47,9.86,7,9.86,7S126.9,205.86,124.76,204.93Z"/><path class="cls-15" d="M148.48,217.2a12.8,12.8,0,0,0,8.65-4.43,7.93,7.93,0,0,0,1.74-3.22,3.52,3.52,0,0,0-.95-3.39,3.58,3.58,0,0,0-4.19,0,8.42,8.42,0,0,0-2.71,3.53C150.14,211.49,148.48,217.2,148.48,217.2Z"/><path class="cls-45" d="M90.49,335.61,66.9,314.82c-4.19-3.69-8.47-7.5-11.12-12.41-5.71-10.57-2.42-24.3,5.29-33.51s19-14.65,30.33-18.61,23.14-6.74,33.95-12c6.78-3.28,13.59-8.17,15.45-15.47a15.44,15.44,0,0,0-14-19.22"/><path class="cls-45" d="M154,209.66c-2.15,6.6-10.52,10.61-14.34,16.33"/><path class="cls-45" d="M123.92,217.25c1.65,1.74,3.62,3.18,5.06,5.1,3,4.05,3.29,10.63-1.2,14.72"/><path class="cls-45" d="M81.58,254.18a44.88,44.88,0,0,0,24.81,9.25"/><path class="cls-45" d="M65.69,263.92a24.49,24.49,0,0,1,8.23-26.69"/><path class="cls-15" d="M340.62,134.54a3.48,3.48,0,0,1,.5-3.47,2.54,2.54,0,0,1,2.71-.61c6.88,3,6.13,13.8,6.13,13.8S343.45,143.31,340.62,134.54Z"/><path class="cls-15" d="M340.46,154.7c-4.45,8.07,11.36,7.45,17.07,2.7C357.52,157.4,344.29,147.75,340.46,154.7Z"/><path class="cls-15" d="M360.45,135.15c-1.07-1.48-1.45-3.67-.29-5.08a3.9,3.9,0,0,1,3.72-1.11,8.71,8.71,0,0,1,4.18,2.55c5.2,6.49,2.76,12.85,2.76,12.85S362.21,137.56,360.45,135.15Z"/><path class="cls-15" d="M423.25,155.12a3.57,3.57,0,0,1,.68-3.67,3.1,3.1,0,0,1,2.31-.69,7,7,0,0,1,2.37.71,7.56,7.56,0,0,1,3.64,3.63c2,4,.63,9,.63,9S424.2,158.25,423.25,155.12Z"/><path class="cls-15" d="M403.49,169.92A10.13,10.13,0,0,0,393,168.23a5.37,5.37,0,0,0-2.24,1.69c-1.25,1.73-.81,4.27.48,6a13.1,13.1,0,0,0,5.2,3.61c3.52,1.6,9,1.92,12.73,2.88C409.18,182.37,409.16,174.91,403.49,169.92Z"/><path class="cls-45" d="M345.55,136.27c2.33,7.64,8.91,13.4,16.24,16.52s15.4,3.94,23.35,4.46,16,.77,23.67,2.86c7.49,2,14.95,6.29,18.16,13.37,3.91,8.62.45,18.93-5,26.64S409,214,403.73,221.87c-2.44,3.6-4.48,7.81-4,12.13.66,5.76,5.5,10,10,13.65"/><path class="cls-45" d="M363.87,133.46a45.77,45.77,0,0,1,10.5,22.79"/><path class="cls-45" d="M346.16,156a36.33,36.33,0,0,0,9.18,1.62,14,14,0,0,0,9-3.89"/><path class="cls-45" d="M428.4,155.59a15.61,15.61,0,0,1,4.68,10.51c.15,3.93-2,8.69-4.64,11.63"/><path class="cls-45" d="M398.88,173.43a157,157,0,0,0,16.8,13.83c2.86,2,8.54,4.6,11.05,3.94"/></g></g></svg>