<svg xmlns="http://www.w3.org/2000/svg" xmlns:xlink="http://www.w3.org/1999/xlink" viewBox="0 0 1500 1000"><defs><style>.cls-1{mask:url(#mask);filter:url(#luminosity-noclip-8);}.cls-10,.cls-12,.cls-14,.cls-18,.cls-2,.cls-20,.cls-22,.cls-29,.cls-4,.cls-42,.cls-45,.cls-49,.cls-6,.cls-8{mix-blend-mode:multiply;}.cls-2{fill:url(#linear-gradient);}.cls-3{mask:url(#mask-2);filter:url(#luminosity-noclip-13);}.cls-4{fill:url(#linear-gradient-2);}.cls-5{mask:url(#mask-3);filter:url(#luminosity-noclip-14);}.cls-6{fill:url(#linear-gradient-3);}.cls-7{mask:url(#mask-4);filter:url(#luminosity-noclip-9);}.cls-8{fill:url(#linear-gradient-4);}.cls-9{mask:url(#mask-5);filter:url(#luminosity-noclip-10);}.cls-10{fill:url(#linear-gradient-5);}.cls-11{mask:url(#mask-6);filter:url(#luminosity-noclip-11);}.cls-12{fill:url(#linear-gradient-6);}.cls-13{mask:url(#mask-7);filter:url(#luminosity-noclip-12);}.cls-14{fill:url(#linear-gradient-7);}.cls-15{isolation:isolate;}.cls-16{fill:#353a85;}.cls-17{mask:url(#mask-8);}.cls-18,.cls-20,.cls-22,.cls-29,.cls-42,.cls-45,.cls-49{opacity:0.22;}.cls-18{fill:url(#linear-gradient-8);}.cls-19{mask:url(#mask-9);}.cls-20{fill:url(#linear-gradient-9);}.cls-21{mask:url(#mask-10);}.cls-22{fill:url(#linear-gradient-10);}.cls-23{fill:#1f375a;}.cls-24{fill:#e8dbce;}.cls-25{fill:#cbd1cb;}.cls-26{fill:#1a1a1a;}.cls-27{fill:#564a47;}.cls-28{mask:url(#mask-11);}.cls-29{fill:url(#linear-gradient-11);}.cls-30{fill:#333;}.cls-31{fill:#3d322b;}.cls-32{fill:#f0f0f0;}.cls-33{fill:#e8e8e8;}.cls-34{fill:#4d4d4d;}.cls-35{fill:#a58c41;}.cls-36{fill:#cacaca;}.cls-37{fill:#8a6239;}.cls-38{fill:#666;}.cls-39{fill:#736357;}.cls-40{fill:#f0e5d4;}.cls-41{mask:url(#mask-12);}.cls-42{fill:url(#linear-gradient-12);}.cls-43{fill:#6d8497;}.cls-44{mask:url(#mask-13);}.cls-45{fill:url(#linear-gradient-13);}.cls-46{fill:#d7c68e;}.cls-47{fill:#414141;}.cls-48{mask:url(#mask-14);}.cls-49{fill:url(#linear-gradient-14);}.cls-50{fill:#d9d9d9;}.cls-51{filter:url(#luminosity-noclip-7);}.cls-52{filter:url(#luminosity-noclip-6);}.cls-53{filter:url(#luminosity-noclip-5);}.cls-54{filter:url(#luminosity-noclip-4);}.cls-55{filter:url(#luminosity-noclip-3);}.cls-56{filter:url(#luminosity-noclip-2);}.cls-57{filter:url(#luminosity-noclip);}</style><filter id="luminosity-noclip" x="900.64" y="-8692" width="163.91" height="32766" filterUnits="userSpaceOnUse" color-interpolation-filters="sRGB"><feFlood flood-color="#fff" result="bg"/><feBlend in="SourceGraphic" in2="bg"/></filter><mask id="mask" x="900.64" y="-8692" width="163.91" height="32766" maskUnits="userSpaceOnUse"><g class="cls-57"/></mask><linearGradient id="linear-gradient" x1="1335.79" y1="803.92" x2="1421.22" y2="803.92" gradientTransform="matrix(1.92, -0.05, 0.03, 1, -1685.59, 66.94)" gradientUnits="userSpaceOnUse"><stop offset="0" stop-color="#fff"/><stop offset="1"/></linearGradient><filter id="luminosity-noclip-2" x="428.3" y="-8692" width="129.9" height="32766" filterUnits="userSpaceOnUse" color-interpolation-filters="sRGB"><feFlood flood-color="#fff" result="bg"/><feBlend in="SourceGraphic" in2="bg"/></filter><mask id="mask-2" x="428.3" y="-8692" width="129.9" height="32766" maskUnits="userSpaceOnUse"><g class="cls-56"/></mask><linearGradient id="linear-gradient-2" x1="1089.78" y1="795.29" x2="1157.48" y2="795.29" xlink:href="#linear-gradient"/><filter id="luminosity-noclip-3" x="199.92" y="-8692" width="163.91" height="32766" filterUnits="userSpaceOnUse" color-interpolation-filters="sRGB"><feFlood flood-color="#fff" result="bg"/><feBlend in="SourceGraphic" in2="bg"/></filter><mask id="mask-3" x="199.92" y="-8692" width="163.91" height="32766" maskUnits="userSpaceOnUse"><g class="cls-55"/></mask><linearGradient id="linear-gradient-3" x1="970.86" y1="789.18" x2="1056.29" y2="789.18" xlink:href="#linear-gradient"/><filter id="luminosity-noclip-4" x="681.56" y="-8692" width="163.91" height="32766" filterUnits="userSpaceOnUse" color-interpolation-filters="sRGB"><feFlood flood-color="#fff" result="bg"/><feBlend in="SourceGraphic" in2="bg"/></filter><mask id="mask-4" x="681.56" y="-8692" width="163.91" height="32766" maskUnits="userSpaceOnUse"><g class="cls-54"/></mask><linearGradient id="linear-gradient-4" x1="1221.73" y1="797.15" x2="1307.16" y2="797.15" xlink:href="#linear-gradient"/><filter id="luminosity-noclip-5" x="545.55" y="-8692" width="129.9" height="32766" filterUnits="userSpaceOnUse" color-interpolation-filters="sRGB"><feFlood flood-color="#fff" result="bg"/><feBlend in="SourceGraphic" in2="bg"/></filter><mask id="mask-5" x="545.55" y="-8692" width="129.9" height="32766" maskUnits="userSpaceOnUse"><g class="cls-53"/></mask><linearGradient id="linear-gradient-5" x1="1150.86" y1="796.59" x2="1218.56" y2="796.59" xlink:href="#linear-gradient"/><filter id="luminosity-noclip-6" x="1046.41" y="-8692" width="163.91" height="32766" filterUnits="userSpaceOnUse" color-interpolation-filters="sRGB"><feFlood flood-color="#fff" result="bg"/><feBlend in="SourceGraphic" in2="bg"/></filter><mask id="mask-6" x="1046.41" y="-8692" width="163.91" height="32766" maskUnits="userSpaceOnUse"><g class="cls-52"/></mask><linearGradient id="linear-gradient-6" x1="1411.69" y1="807.87" x2="1497.12" y2="807.87" xlink:href="#linear-gradient"/><filter id="luminosity-noclip-7" x="1225.45" y="-8692" width="163.91" height="32766" filterUnits="userSpaceOnUse" color-interpolation-filters="sRGB"><feFlood flood-color="#fff" result="bg"/><feBlend in="SourceGraphic" in2="bg"/></filter><mask id="mask-7" x="1225.45" y="-8692" width="163.91" height="32766" maskUnits="userSpaceOnUse"><g class="cls-51"/></mask><linearGradient id="linear-gradient-7" x1="1504.88" y1="815.7" x2="1590.31" y2="815.7" xlink:href="#linear-gradient"/><filter id="luminosity-noclip-8" x="900.64" y="789.65" width="163.91" height="10.98" filterUnits="userSpaceOnUse" color-interpolation-filters="sRGB"><feFlood flood-color="#fff" result="bg"/><feBlend in="SourceGraphic" in2="bg"/></filter><mask id="mask-8" x="900.64" y="789.65" width="163.91" height="10.98" maskUnits="userSpaceOnUse"><g class="cls-1"><path id="_Trazado_" data-name="&lt;Trazado&gt;" class="cls-2" d="M1061.58,794.92c3.17-1.1,4.09-2.44,1.38-4.07-2.18-1.31-8.48-.61-11.36-.68-13.48-.32-27-.56-40.5-.52-27.21.09-54.47,1.13-81.55,3.12-4,.3-33.13,1.44-28.37,6.42,2.42,2.53,14,.93,18.27.91l28-.11,56-.22C1007.65,799.77,1049.9,799,1061.58,794.92Z"/></g></mask><linearGradient id="linear-gradient-8" x1="1335.79" y1="803.92" x2="1421.22" y2="803.92" gradientTransform="matrix(1.92, -0.05, 0.03, 1, -1685.59, 66.94)" gradientUnits="userSpaceOnUse"><stop offset="0"/><stop offset="1"/></linearGradient><filter id="luminosity-noclip-9" x="681.56" y="789.11" width="163.91" height="10.98" filterUnits="userSpaceOnUse" color-interpolation-filters="sRGB"><feFlood flood-color="#fff" result="bg"/><feBlend in="SourceGraphic" in2="bg"/></filter><mask id="mask-9" x="681.56" y="789.11" width="163.91" height="10.98" maskUnits="userSpaceOnUse"><g class="cls-7"><path id="_Trazado_2" data-name="&lt;Trazado&gt;" class="cls-8" d="M842.5,794.38c3.17-1.1,4.09-2.44,1.38-4.07-2.18-1.31-8.48-.61-11.36-.68-13.48-.32-27-.56-40.5-.52-27.21.09-54.47,1.13-81.55,3.12-4,.3-33.13,1.44-28.37,6.42,2.42,2.53,14,.93,18.27.91l28-.11,56-.22C788.57,799.23,830.82,798.43,842.5,794.38Z"/></g></mask><linearGradient id="linear-gradient-9" x1="1221.73" y1="797.15" x2="1307.16" y2="797.15" xlink:href="#linear-gradient-8"/><filter id="luminosity-noclip-10" x="545.55" y="794.08" width="129.9" height="8.7" filterUnits="userSpaceOnUse" color-interpolation-filters="sRGB"><feFlood flood-color="#fff" result="bg"/><feBlend in="SourceGraphic" in2="bg"/></filter><mask id="mask-10" x="545.55" y="794.08" width="129.9" height="8.7" maskUnits="userSpaceOnUse"><g class="cls-9"><path id="_Trazado_3" data-name="&lt;Trazado&gt;" class="cls-10" d="M673.09,798.25c2.51-.87,3.24-1.93,1.09-3.22-1.72-1-6.72-.49-9-.54-10.68-.25-21.38-.44-32.1-.41-21.56.07-43.17.9-64.63,2.48-3.19.23-26.26,1.14-22.48,5.09,1.92,2,11.09.73,14.48.72l22.2-.09,44.41-.18C630.35,802.09,663.83,801.46,673.09,798.25Z"/></g></mask><linearGradient id="linear-gradient-10" x1="1150.86" y1="796.59" x2="1218.56" y2="796.59" xlink:href="#linear-gradient-8"/><filter id="luminosity-noclip-11" x="1046.41" y="789.46" width="163.91" height="10.98" filterUnits="userSpaceOnUse" color-interpolation-filters="sRGB"><feFlood flood-color="#fff" result="bg"/><feBlend in="SourceGraphic" in2="bg"/></filter><mask id="mask-11" x="1046.41" y="789.46" width="163.91" height="10.98" maskUnits="userSpaceOnUse"><g class="cls-11"><path id="_Trazado_4" data-name="&lt;Trazado&gt;" class="cls-12" d="M1207.35,794.72c3.17-1.1,4.09-2.44,1.38-4.07-2.18-1.31-8.48-.61-11.36-.68-13.48-.32-27-.56-40.5-.52-27.21.09-54.47,1.13-81.55,3.12-4,.3-33.13,1.44-28.37,6.42,2.42,2.53,14,.93,18.27.91l28-.11,56-.22C1153.43,799.57,1195.67,798.77,1207.35,794.72Z"/></g></mask><linearGradient id="linear-gradient-11" x1="1411.69" y1="807.87" x2="1497.12" y2="807.87" xlink:href="#linear-gradient-8"/><filter id="luminosity-noclip-12" x="1225.45" y="792.2" width="163.91" height="10.98" filterUnits="userSpaceOnUse" color-interpolation-filters="sRGB"><feFlood flood-color="#fff" result="bg"/><feBlend in="SourceGraphic" in2="bg"/></filter><mask id="mask-12" x="1225.45" y="792.2" width="163.91" height="10.98" maskUnits="userSpaceOnUse"><g class="cls-13"><path id="_Trazado_5" data-name="&lt;Trazado&gt;" class="cls-14" d="M1386.39,797.47c3.17-1.1,4.09-2.44,1.38-4.07-2.18-1.31-8.48-.61-11.37-.68-13.48-.32-27-.56-40.5-.52-27.21.09-54.47,1.13-81.55,3.12-4,.3-33.13,1.44-28.37,6.42,2.42,2.53,14,.93,18.27.91l28-.11,56-.22C1332.47,802.32,1374.71,801.52,1386.39,797.47Z"/></g></mask><linearGradient id="linear-gradient-12" x1="1504.88" y1="815.7" x2="1590.31" y2="815.7" xlink:href="#linear-gradient-8"/><filter id="luminosity-noclip-13" x="428.3" y="796.11" width="129.9" height="8.7" filterUnits="userSpaceOnUse" color-interpolation-filters="sRGB"><feFlood flood-color="#fff" result="bg"/><feBlend in="SourceGraphic" in2="bg"/></filter><mask id="mask-13" x="428.3" y="796.11" width="129.9" height="8.7" maskUnits="userSpaceOnUse"><g class="cls-3"><path id="_Trazado_6" data-name="&lt;Trazado&gt;" class="cls-4" d="M555.83,800.28c2.51-.87,3.24-1.93,1.09-3.22-1.72-1-6.72-.49-9-.54-10.68-.25-21.38-.44-32.1-.41-21.56.07-43.17.9-64.63,2.48-3.19.23-26.26,1.14-22.48,5.09,1.92,2,11.09.73,14.48.72l22.2-.09,44.41-.18C513.1,804.12,546.58,803.49,555.83,800.28Z"/></g></mask><linearGradient id="linear-gradient-13" x1="1089.78" y1="795.29" x2="1157.48" y2="795.29" xlink:href="#linear-gradient-8"/><filter id="luminosity-noclip-14" x="199.92" y="794.85" width="163.91" height="10.98" filterUnits="userSpaceOnUse" color-interpolation-filters="sRGB"><feFlood flood-color="#fff" result="bg"/><feBlend in="SourceGraphic" in2="bg"/></filter><mask id="mask-14" x="199.92" y="794.85" width="163.91" height="10.98" maskUnits="userSpaceOnUse"><g class="cls-5"><path id="_Trazado_7" data-name="&lt;Trazado&gt;" class="cls-6" d="M360.86,800.11c3.17-1.1,4.09-2.44,1.38-4.07-2.18-1.31-8.48-.61-11.36-.68-13.48-.32-27-.56-40.5-.52-27.21.09-54.47,1.13-81.55,3.12-4,.3-33.13,1.44-28.37,6.42,2.42,2.53,14,.93,18.27.91l28-.11,56-.22C306.94,805,349.18,804.16,360.86,800.11Z"/></g></mask><linearGradient id="linear-gradient-14" x1="970.86" y1="789.18" x2="1056.29" y2="789.18" xlink:href="#linear-gradient-8"/></defs><title>Mesa de trabajo 17</title><g class="cls-15"><g id="object"><path id="_Trazado_compuesto_" data-name="&lt;Trazado compuesto&gt;" class="cls-16" d="M1371.79,532.33a161.11,161.11,0,0,0-21.62-46.93,252.66,252.66,0,0,0-30.91-36.81,239.52,239.52,0,0,0-21-66.16c-7-14.54-16.72-26.9-26.69-39.54a160.77,160.77,0,0,0-21.26-22.28c-19.62-16.93-40.87-31.58-64.44-42.38q-18-8.26-36.53-15.19-8.5-9.6-17.51-18.6a383.23,383.23,0,0,0-31.29-27.8l-2.93-3.54a259.14,259.14,0,0,0-35.62-35.1c-16.75-13.61-34-26.55-53-37a381.73,381.73,0,0,0-58.49-25.8A322.87,322.87,0,0,0,836.8,97.53c-45.32,1.2-89.91,11.52-129.16,34.35a417.34,417.34,0,0,0-73.32-18.65c-30.58-4.87-61.31-8.15-92.3-7.58a540.62,540.62,0,0,0-91.37,9.9c-52.83,10.12-104,33-144.2,69.07-11.76,10.53-21.4,23.06-30.65,35.8-9.43,13-15.38,27.53-21.36,42.4-6.45,16-8.62,33.35-10.3,50.44-1.72,17.39.82,34.66,3.51,51.83.18,1.14.38,2.26.59,3.39A169,169,0,0,0,238.72,387c-4.25,9.71-8.4,19.37-11.62,29.34a580.32,580.32,0,0,0-47.32,38.1c-30.41,27.37-61.84,61.45-70.75,102.67A157.49,157.49,0,0,0,135.72,682c7.18,9.78,14.59,19.42,23.29,27.89,8.93,8.69,19,16.31,29,23.69,13.9,10.28,29.11,18.66,44.72,26,65.6,31,135.92,53.39,206.82,68.43a1101.17,1101.17,0,0,0,217.35,24.08q23.19.22,46.43-.56,4.06,1.94,8.15,3.71c39.9,17.25,80.67,32.23,123.25,41.34a547.91,547.91,0,0,0,56.7,9.16,72,72,0,0,0,7.36,1.76c15,2.74,30.21,4.65,45.43,3.75,10-.59,19.86-1.91,29.76-3.06l63.88-7.38,72.65-8.4a84.43,84.43,0,0,0,53.66-22.23c13.16-13.16,23.07-34.76,22.23-53.66a95.69,95.69,0,0,0-3.74-22.82c3.26-5.29,6.51-10.59,9.5-16a554.71,554.71,0,0,0,54.15-27.89c26.61-15.69,53-34,75.22-55.51,24.51-23.77,47-56.38,52.46-90.77C1377.84,578.95,1378.7,556.73,1371.79,532.33Z"/><g class="cls-17"><path id="_Trazado_8" data-name="&lt;Trazado&gt;" class="cls-18" d="M1061.58,794.92c3.17-1.1,4.09-2.44,1.38-4.07-2.18-1.31-8.48-.61-11.36-.68-13.48-.32-27-.56-40.5-.52-27.21.09-54.47,1.13-81.55,3.12-4,.3-33.13,1.44-28.37,6.42,2.42,2.53,14,.93,18.27.91l28-.11,56-.22C1007.65,799.77,1049.9,799,1061.58,794.92Z"/></g><g class="cls-19"><path id="_Trazado_9" data-name="&lt;Trazado&gt;" class="cls-20" d="M842.5,794.38c3.17-1.1,4.09-2.44,1.38-4.07-2.18-1.31-8.48-.61-11.36-.68-13.48-.32-27-.56-40.5-.52-27.21.09-54.47,1.13-81.55,3.12-4,.3-33.13,1.44-28.37,6.42,2.42,2.53,14,.93,18.27.91l28-.11,56-.22C788.57,799.23,830.82,798.43,842.5,794.38Z"/></g><g class="cls-21"><path id="_Trazado_10" data-name="&lt;Trazado&gt;" class="cls-22" d="M673.09,798.25c2.51-.87,3.24-1.93,1.09-3.22-1.72-1-6.72-.49-9-.54-10.68-.25-21.38-.44-32.1-.41-21.56.07-43.17.9-64.63,2.48-3.19.23-26.26,1.14-22.48,5.09,1.92,2,11.09.73,14.48.72l22.2-.09,44.41-.18C630.35,802.09,663.83,801.46,673.09,798.25Z"/></g><g id="_Grupo_" data-name="&lt;Grupo&gt;"><path id="_Trazado_11" data-name="&lt;Trazado&gt;" class="cls-23" d="M627.41,683.19c-1.67-30.45,1.83-61.5,1.53-92.14a61,61,0,0,0-5.2-31.42,4.65,4.65,0,0,0-1.14-1.73c-1.73-1.47-4.69-.69-7,.09-22,7.51-48.06,5.74-68.15-4.86-4,5-5.11,11.12-6.09,17-1.58,9.57-3.32,19.12-3.74,28.74V599h0c-.09,2.06-.14,4.13-.09,6.2.28,12,3.08,23.79,5.26,35.6a140,140,0,0,1,2.8,23.27c.1,6.39-1,12.23.74,18.48,4.26,15.4,4.27,32.19,6.07,47.92,1.93,16.85,3.83,33.71,5.41,50.59l.19,2c1,.23,16.74,3.22,16.74-.15l3.78-98.29c.53-13.79-.68-60.36,3.55-73.5l5.23.43c9.58,43.35,20.93,119.3,30.51,162.65.84,3.82,1.87,7.94,4.91,10.4s8.73,1.77,9.63-2C629.55,749.45,629.22,716.34,627.41,683.19Z"/><path id="_Trazado_12" data-name="&lt;Trazado&gt;" class="cls-24" d="M599.29,386.76c0-11.21-9.77-20.29-21.82-20.29s-21.82,9.08-21.82,20.29a18.93,18.93,0,0,0,.8,5.39c0,.44,0,.89,0,1.36a57.5,57.5,0,0,0,.91,12.1c1.54,7.76,5.55,15,13.15,19.39a16.89,16.89,0,0,0,8.46,2.57c4.07,0,7.8-2.12,10.63-4.72,9.34-8.58,10.14-21.46,9.48-33.63A19,19,0,0,0,599.29,386.76Z"/><path id="_Trazado_13" data-name="&lt;Trazado&gt;" class="cls-25" d="M629.83,577.89q-.11-31.45-.22-62.9c-.06-17.67-4.09-36.41-6.71-53.86-1.44-9.6-3.14-12.94-7.5-21.5-.62-1.22-.73-2-6.49-3.9-1.25-.4-4.23-2.1-5.77-1.84-7.53,1.27-15.2-1.58-22.73-.31-8,1.35-21.34-2.69-27.55,2.76-8.4,7.37-9,24.86-10.31,36.31-1.8,15.44-6.07,31.1-6.83,46.64-.66,13.63-1,27.28-1.27,40.93-.13,7.12-2.73,31.86,3.66,36.62,3.74,2.78,13.74,3.92,24,4.26l1.11,0h.3c4.19.11,8.38.1,12.18,0,5.61-.12,10.35-.39,12.92-.63,12-1.1,23.87-3.54,35.64-6.25,2.09-.48,4.4-1.12,5.54-3C630.66,589.88,629.84,579.52,629.83,577.89Z"/><path id="_Trazado_14" data-name="&lt;Trazado&gt;" class="cls-26" d="M564.68,798.06c-1.49,1.25.53,2.24,1.51,2.33a16.32,16.32,0,0,0,5.33-.35,3.25,3.25,0,0,0,1.29-.54,3.63,3.63,0,0,0,.71-.85c.57-.85,1.92-2.2,2.13-3.18a3.7,3.7,0,0,0-.69-2.35c-.81-1.58-2.2-3.2-2.13-5.07-3.83.42-7.5-.9-10.68.13-.27,1.33-1.27,2.43-.8,3.47-.31-.69-9.56,1.64-10.66,1.85a51.32,51.32,0,0,1-5.33.8c-1.4.12-4.07-.52-4.85.87a3.89,3.89,0,0,0-.41,1.64,3.22,3.22,0,0,0,.1,1.28,2.55,2.55,0,0,0,1.59,1.47C549.39,802.36,557,797.95,564.68,798.06Z"/><path id="_Trazado_15" data-name="&lt;Trazado&gt;" class="cls-26" d="M628.8,796.16c1.44,1.34-.51,2.42-1.45,2.52a14.21,14.21,0,0,1-5.16-.36,3,3,0,0,1-1.25-.58,3.86,3.86,0,0,1-.69-.92c-.55-.92-1.87-2.36-2.08-3.43a4.33,4.33,0,0,1,.66-2.54c.78-1.7,2.11-4.77,2-6.8,3.71.44,9.08.45,12.16,1.56-.81,1.57-.58,2.48-1,3.61.29-.75,9.26,1.74,10.32,2a44.89,44.89,0,0,0,5.16.84c1.35.13,3.94-.57,4.7.93a4.59,4.59,0,0,1,.4,1.77,3.87,3.87,0,0,1-.1,1.38,2.6,2.6,0,0,1-1.53,1.59C643.62,800.75,636.27,796,628.8,796.16Z"/><path id="_Trazado_16" data-name="&lt;Trazado&gt;" class="cls-27" d="M609.68,373.17a12.62,12.62,0,0,0-1.76-2.79,18.1,18.1,0,0,0-4.73-9.87,5.19,5.19,0,0,0-4.63-1.49,16.7,16.7,0,0,0-6-1.31,20.67,20.67,0,0,0-6.83-2.77c-12.48-2.49-26.11,2.62-33.22,13.13-1.06-4.43-9.41-5.1-10.11.14s1.09,9.79,6.25,11.92c4.49,1.85,7.39.32,10-2.25.11-.06.22-.09.32-.16,4.41-2.61,9.32-5.69,14.5-7,3.86,1.37,7.6,4.5,10.67,7.38a18.36,18.36,0,0,0,6.08,4,15.34,15.34,0,0,0,1.14,2.13,5.64,5.64,0,0,0,5.13,6,12.92,12.92,0,0,0,4-.27c-.09.34-.18.68-.25,1-.35,1.47-.7,6.52-2.32,7.29-3.61,1.72-3.15,7.13,0,9s8.29-.44,7.82-4.49c-.12-1,.77-3,1.1-4,.48-1.41,1.13-2.64,1.53-4.12a22.85,22.85,0,0,0,.87-4.56c0-.62-.34-3.84-.09-4.16a3.58,3.58,0,0,0,.44-3.72c.11-.28.23-.55.32-.84A11.69,11.69,0,0,0,609.68,373.17Z"/></g><g class="cls-28"><path id="_Trazado_17" data-name="&lt;Trazado&gt;" class="cls-29" d="M1207.35,794.72c3.17-1.1,4.09-2.44,1.38-4.07-2.18-1.31-8.48-.61-11.36-.68-13.48-.32-27-.56-40.5-.52-27.21.09-54.47,1.13-81.55,3.12-4,.3-33.13,1.44-28.37,6.42,2.42,2.53,14,.93,18.27.91l28-.11,56-.22C1153.43,799.57,1195.67,798.77,1207.35,794.72Z"/></g><g id="_Grupo_2" data-name="&lt;Grupo&gt;"><path id="_Trazado_18" data-name="&lt;Trazado&gt;" class="cls-27" d="M1054.19,320.86a16.79,16.79,0,0,0,.12-5.37c-.24-1.73-1.12-3.76-2.89-4s-3,1.51-3.79,3.06c-3.46,7.18-3.92,15.37-4.32,23.33-1.66-.4-.77.65,6.49.09-.24-3.3,2.36-6.05,3.72-9.07,1.45-3.22,3.81-6.36,3.34-9.86l-1.42,0Z"/><path id="_Trazado_19" data-name="&lt;Trazado&gt;" class="cls-23" d="M1143.85,684.83c-1.67-30.45,1.83-61.5,1.53-92.14a61,61,0,0,0-5.2-31.42,4.65,4.65,0,0,0-1.14-1.73c-1.73-1.47-4.69-.69-7,.09-22,7.51-48.06,5.74-68.15-4.86-4,5-5.11,11.12-6.09,17-1.58,9.57-3.32,19.12-3.74,28.74v.05h0c-.09,2.06-.14,4.13-.09,6.2.28,12,3.08,23.79,5.26,35.6a140,140,0,0,1,2.8,23.27c.1,6.39-1,12.23.74,18.48,4.26,15.4,4.27,32.19,6.07,47.92,1.93,16.85,3.83,33.71,5.41,50.59l.19,2c1,.23,16.74,3.22,16.74-.15l3.78-98.29c.53-13.79-.68-60.36,3.55-73.5l5.23.43c9.58,43.35,20.93,119.3,30.51,162.65.84,3.82,1.87,7.94,4.91,10.4s8.73,1.77,9.63-2C1146,751.09,1145.66,718,1143.85,684.83Z"/><path id="_Trazado_20" data-name="&lt;Trazado&gt;" class="cls-27" d="M1115.84,388.43c0-11.27-9.82-20.4-21.94-20.4s-21.94,9.13-21.94,20.4a19,19,0,0,0,.81,5.42c0,.44,0,.9,0,1.37a57.81,57.81,0,0,0,.92,12.16c1.55,7.8,5.58,15.06,13.22,19.49a17,17,0,0,0,8.51,2.58c4.09,0,7.84-2.13,10.68-4.74,9.39-8.62,10.2-21.58,9.53-33.81A19.09,19.09,0,0,0,1115.84,388.43Z"/><path id="_Trazado_21" data-name="&lt;Trazado&gt;" class="cls-30" d="M1083.94,426.57a13.32,13.32,0,0,0,3.6,3.7,12.66,12.66,0,0,0,6.32,1.44c2.68,0,5.51-.29,7.67-1.71,1.55-1,5.34-4.07,6.31-5.54,3.26-4.95,5.33-8.36,7.06-13.88a16.08,16.08,0,0,0,.94-5.15,1.49,1.49,0,0,0-1.74.73,4.11,4.11,0,0,0-.31,1.86c-.13,3.39-1.82,6.56-3.58,9.57-1.54,2.65-5.46,5-7.85,7.08a12.82,12.82,0,0,1-9,3.36,3.34,3.34,0,0,1-1.27-.28,3.14,3.14,0,0,1-1.39-2.1,3.4,3.4,0,0,0-1.31-2.15c-.79-.46-2.17,0-2.07.8.07.54.7.93.7,1.47s-.88,1-1.55.82a3.36,3.36,0,0,1-1.59-1.17l-3.14-3.49c-.44-.49-.95-.9-1.59-.63C1081,423.15,1082.7,424.91,1083.94,426.57Z"/><path id="_Trazado_22" data-name="&lt;Trazado&gt;" class="cls-31" d="M1089.09,785a87,87,0,0,0-18.85.71,73.11,73.11,0,0,1-15.59,7.78,12.57,12.57,0,0,0-4.49,2.26c-1.19,1.12-1.67,3-.56,4.2s2.69,1.15,4.2,1.16a205.5,205.5,0,0,0,34.67-2.62,3.77,3.77,0,0,0,1.91-.68,2.72,2.72,0,0,0,.73-1.32A13.17,13.17,0,0,0,1089.09,785Z"/><path id="_Trazado_23" data-name="&lt;Trazado&gt;" class="cls-31" d="M1142.76,781.47a76.9,76.9,0,0,0-16.5,3.54,61.8,61.8,0,0,1-12.23,9.28,10.63,10.63,0,0,0-3.52,2.69,2.73,2.73,0,0,0,.33,3.79c1.06.76,2.6.6,3.94.37a180.79,180.79,0,0,0,30.08-7.68,3.22,3.22,0,0,0,1.55-.9,2.33,2.33,0,0,0,.38-1.27A12.26,12.26,0,0,0,1142.76,781.47Z"/><path id="_Trazado_24" data-name="&lt;Trazado&gt;" class="cls-32" d="M1049.9,338.54c.49-3.07.57-7.07-1.82-8s-4.82,2.47-6.22,5.34l-9.25,18.87c-6,12.26-12.11,24.82-14.6,38.35-1,5.52-1.19,11.87,2,15.45,2,2.22,4.94,2.89,7.77,3.31,14.05,2.06,12.62-13.85,14.6-26.3Z"/><path id="_Trazado_25" data-name="&lt;Trazado&gt;" class="cls-30" d="M1057,600.86a18.29,18.29,0,0,0,4.93.06,17.08,17.08,0,0,0,8.72-3.59,22.2,22.2,0,0,0,4.86-6,44.9,44.9,0,0,0,4.63-10.93l-1.06,0q-.8,2.8-1.8,5.54c-1.63,4.45-4.58,9.76-9.25,12.44-3.94,2.26-8.73,1.84-13.33,1.66-.66,0-.83,1-.16,1h.12a.66.66,0,0,1,.19-.42C1055.31,600.3,1056.5,600.78,1057,600.86Z"/><path id="_Trazado_26" data-name="&lt;Trazado&gt;" class="cls-30" d="M1075.4,592.56a65.75,65.75,0,0,0,5.05-12.16h-.28a44.9,44.9,0,0,1-4.63,10.93,22.2,22.2,0,0,1-4.86,6,17.08,17.08,0,0,1-8.72,3.59,18.29,18.29,0,0,1-4.93-.06c-.52-.08-1.71-.56-2.15-.23a.66.66,0,0,0-.19.42C1062.87,602.15,1071.61,599.49,1075.4,592.56Z"/><path id="_Trazado_27" data-name="&lt;Trazado&gt;" class="cls-32" d="M1146.27,579.53q-.11-31.45-.22-62.9c-.06-17.67-4.09-36.41-6.71-53.86-1.44-9.6-3.14-12.94-7.5-21.5-.62-1.22-.73-2-6.49-3.9-1.25-.4-4.23-2.1-5.77-1.84-7.53,1.27-15.2-1.58-22.73-.31-8,1.35-21.34-2.69-27.55,2.76-8.4,7.37-9,24.86-10.31,36.31-1.8,15.44-6.07,31.1-6.83,46.64-.66,13.63-1,27.28-1.27,40.93-.13,7.12-2.73,31.86,3.66,36.62,3.74,2.78,13.74,3.92,24,4.26l1.11,0h.3c4.19.11,8.38.1,12.18,0,5.61-.12,10.35-.39,12.92-.63,12-1.1,23.87-3.54,35.64-6.25,2.09-.48,4.4-1.12,5.54-3C1147.1,591.52,1146.28,581.16,1146.27,579.53Z"/><path id="_Trazado_28" data-name="&lt;Trazado&gt;" class="cls-32" d="M1054.76,471c3.07,3.24,6.52,6.31,10.43,7.29s8.37-.75,9.73-5c1.24-3.87-.33-8.43-2-12.36-4.38-10-9.85-19.4-15.31-28.74l-17.25-29.53c-1.74-3-3.62-6.11-6.35-7.7-4.77-2.79-15.29,1.27-15.87,7.71-.51,5.77,7.63,19.7,10,25.12C1035,443.64,1043.35,459,1054.76,471Z"/><path id="_Trazado_29" data-name="&lt;Trazado&gt;" class="cls-33" d="M1093.68,438.13c.37-.48.78-1.07.54-1.61a2,2,0,0,0-1.13-.82q-3.09-1.26-6.29-2.29a2.87,2.87,0,0,0-2.13-.1,2.42,2.42,0,0,0-.77.75l-4,5.22a1.53,1.53,0,0,0-.42.9,1.61,1.61,0,0,0,.63,1,55.12,55.12,0,0,1,4,4.3c.9,1.07,1.94,3.62,3.71,2.5,1.35-.85,1.83-3.47,2.52-4.77A35.66,35.66,0,0,1,1093.68,438.13Z"/><path id="_Trazado_30" data-name="&lt;Trazado&gt;" class="cls-33" d="M1100.85,444.73a17.7,17.7,0,0,0,.83,3.29.8.8,0,0,0,.27.39c.43.28,1-.18,1.25-.57a52.79,52.79,0,0,1,8.41-9.22,6.76,6.76,0,0,0,1.66-1.81,1.86,1.86,0,0,0-.2-2.21,3.53,3.53,0,0,0-1.52-.71l-3.62-1a5.75,5.75,0,0,0-2.27-.33,5.25,5.25,0,0,0-1.91.76c-1.47.84-5.55,2.59-5.7,4.31-.08,1,1.2,2.45,1.58,3.36A20.58,20.58,0,0,1,1100.85,444.73Z"/><path id="_Trazado_31" data-name="&lt;Trazado&gt;" class="cls-32" d="M1148.91,378.48q-9.83,39.18-21.52,78c-.91,3-1.83,6.1-1.54,9.2a9.07,9.07,0,0,0,5.23,7.63c3.77,1.58,8.46.08,11.33-2.61s4.32-6.29,5.61-9.81a238.54,238.54,0,0,0,14-100.07c-.26-3.48-.59-7,.55-10.38.6-1.76,1.52-3.9.09-5.23-1.69-1.56-5.67-1.51-7,.08-1.72,2.07-1.29,8.57-1.79,11.22C1152.53,363.86,1150.75,371.18,1148.91,378.48Z"/><path id="_Trazado_32" data-name="&lt;Trazado&gt;" class="cls-27" d="M1153.92,327.52a16.79,16.79,0,0,1,.5-5.35c.44-1.69,1.54-3.6,3.33-3.6s2.85,1.85,3.41,3.48c2.61,7.54,2.11,15.73,1.58,23.67,1.7-.21.69.73-6.45-.67.62-3.25-1.64-6.29-2.64-9.44-1.07-3.36-3-6.76-2.17-10.19l1.41.14Z"/><path id="_Trazado_compuesto_2" data-name="&lt;Trazado compuesto&gt;" class="cls-30" d="M1113.55,397.12c-2.28.75-4.57,1.54-6.88,2.24a2.72,2.72,0,0,0-1.58-1.89c-1.25-.54-2.89-.33-4.2-.33-2.69,0-5.39,0-8.09,0a.66.66,0,0,0-.67.45H1091a.79.79,0,0,0-.79.76c0,1,0,2,0,3-.5,0-1-.07-1.45-.09-1.06,0-2.11,0-3.17,0,0-.58-.07-1.13-.11-1.64s.08-.92.09-1.38a.78.78,0,0,0-.77-.77h-.18l-.14,0c-2.42-.13-4.83-.28-7.25-.42-1.68-.1-3.94-.68-5.53-.09-2.29.85-2,3.81-1.67,6.23a3.42,3.42,0,0,0,.22,2.67,2.15,2.15,0,0,0,1.49.66,32.85,32.85,0,0,0,5.72,0c1.77,0,5.65.87,7.13-.51a4.58,4.58,0,0,0,1-3.08h.11a.61.61,0,0,0,.51.53,16.55,16.55,0,0,0,4.16.29,4,4,0,0,0,2.52,2.76c1.89.72,4.45.16,6.46.27a7.31,7.31,0,0,0,3.16-.37c.82-.1,1.63-.23,2.44-.38a13.51,13.51,0,0,0,1-.87,16.5,16.5,0,0,0,.85-4.45c2.35-.79,4.74-1.51,7.11-2.23C1114.84,398.25,1114.44,396.82,1113.55,397.12Zm-30,6.41a2.67,2.67,0,0,1-.17.37,41.06,41.06,0,0,1-7,.48,4.4,4.4,0,0,1-2.67-.84s0,0,0,0l0-4.43h4.54l5.36.18a23.18,23.18,0,0,1,.15,2.38C1083.77,402.24,1083.66,402.88,1083.55,403.52Zm20.35-1.51c-.31,1.4-.72,2.4-1.9,3a28.25,28.25,0,0,1-6.1.13c-1.7-.16-2.28-.15-2.43-1.89,0-.29,0-.59,0-.89a.89.89,0,0,0,0-.71c0-.74,0-1.49.08-2.21,3.32,0,6.63,0,9.94,0a1.37,1.37,0,0,1,.5.65q0,.8,0,1.6C1103.94,401.81,1103.93,401.9,1103.91,402Z"/></g><g id="_Grupo_3" data-name="&lt;Grupo&gt;"><g id="_Grupo_4" data-name="&lt;Grupo&gt;"><path id="_Trazado_33" data-name="&lt;Trazado&gt;" class="cls-26" d="M925.23,798.28c-1.41,1.18.51,2.12,1.42,2.2a15.43,15.43,0,0,0,5-.33,3.07,3.07,0,0,0,1.22-.51,3.44,3.44,0,0,0,.67-.81c.54-.8,1.82-2.08,2-3a3.5,3.5,0,0,0-.66-2.22c-.77-1.49-2.08-3-2-4.8-3.62.4-7.1-.85-10.1.13-.25,1.26-1.2,2.29-.76,3.28-.29-.65-9,1.55-10.08,1.75a48.53,48.53,0,0,1-5,.75c-1.32.12-3.85-.49-4.59.82a3.68,3.68,0,0,0-.39,1.55,3,3,0,0,0,.1,1.21,2.42,2.42,0,0,0,1.5,1.39C910.76,802.35,917.93,798.18,925.23,798.28Z"/><g id="_Grupo_5" data-name="&lt;Grupo&gt;"><path id="_Trazado_34" data-name="&lt;Trazado&gt;" class="cls-34" d="M928.59,631.74l-24.73-.65c-.51-1.07,1.62-.15,1.6,1a542.49,542.49,0,0,0,9.94,111.35c3.07,15.79,6.87,31.59,6.93,47.68l10.15,0,3.45-151c.06-2.55,0-5.46-2-7.08C932.47,631.9,930.45,631.79,928.59,631.74Z"/><path id="_Trazado_35" data-name="&lt;Trazado&gt;" class="cls-34" d="M998.33,783.8a20.71,20.71,0,0,0,12.68-4.57l-24.13-42.57A90,90,0,0,1,980,722.81a65.1,65.1,0,0,1-3.82-18.6c-3.47-69.52-3.47-69.52,1.72-84.49.68-1.95,13.31-9.1,0,0-4.89,3.34-23.42.6-29.28,1.46a5.62,5.62,0,0,0-3.54,1.41c-1,1.11.48,5-.8,4.25-10.45-6.15-3.47,2.21-1.91,21.54.55,6.8,7.71,50.11,9.76,56.61,3.61,11.5,8.49,23.38,15.83,32.95C979.31,752.67,986.86,766.23,998.33,783.8Z"/><path id="_Trazado_36" data-name="&lt;Trazado&gt;" class="cls-35" d="M990,533.35c-1.91-26.56-6.62-54-21.55-76.65-10.72-16.26-25.47-35.16-46.16-18.16-1.87,1.54-14.71-4.25-16-2.3a7.43,7.43,0,0,0-8.77,3.71c-7,12.32-9.53,25.92-10.65,39.9-1.29,16-1.68,32.19-2.16,48.26q-.34,11.18-.53,22.36c-2.88,19.93-4.31,40-1,60a7.1,7.1,0,0,0,1,2.62q.11,7.55.28,15.09c.07,3.22,2.48,7.45,6,7.94a264,264,0,0,0,94.08-3.8c3.64-.82,5.87-4.43,6-7.94A752.41,752.41,0,0,0,990,533.35Z"/><g id="_Grupo_6" data-name="&lt;Grupo&gt;"><path class="cls-24" d="M830.58,351.6c.51-3.49,1.93-7.16.51-10.4l-1.37.37-.7,2.08a16.8,16.8,0,0,0-1.35-5.2c-.7-1.6-2.1-3.31-3.86-3s-2.52,2.28-2.81,4c-1.37,7.86.43,15.86,2.22,23.62a27.12,27.12,0,0,0,8.35-1.66A20.12,20.12,0,0,1,830.58,351.6Z"/><g id="_Grupo_7" data-name="&lt;Grupo&gt;"><path id="_Trazado_37" data-name="&lt;Trazado&gt;" class="cls-35" d="M895.85,480.27c13.23,4.92,26.52-32.59,9.86-38.33-15.09-5.2-39.36-3.57-53.32-12.52A28.48,28.48,0,0,1,839.63,410q-4.57-25.11-7.9-50.37l-10.89.61.22,63.44c0,4.07.06,8.3,1.57,12.14s4.18,6.68,6.93,9.33C847.82,462.82,874.86,472.46,895.85,480.27Z"/><path id="_Trazado_38" data-name="&lt;Trazado&gt;" class="cls-36" d="M837.91,405.06a69.52,69.52,0,0,0-16.3,2.19.78.78,0,0,0,.4,1.51,105.69,105.69,0,0,1,15.88-2.49C838.67,406.19,838.73,405.06,837.91,405.06Z"/><path id="_Trazado_39" data-name="&lt;Trazado&gt;" class="cls-36" d="M862.92,463.67c-1.93-7.18-2.56-20.08,3.65-25.71.61-.55-.26-1.33-.88-.86-7.28,5.51-6.3,19.42-4.86,27.1C861.08,465.54,863.27,465,862.92,463.67Z"/><path id="_Trazado_40" data-name="&lt;Trazado&gt;" class="cls-36" d="M838.73,410c-2.24-.45-4.54.1-6.77.49-3.24.57-6.44,1.3-9.63,2.09a1.13,1.13,0,0,0,.58,2.19c2.39-.59,4.78-1.17,7.19-1.71,2.72-.61,5.62-1.64,8.42-1.7C839.31,411.38,839.54,410.2,838.73,410Z"/><path id="_Trazado_41" data-name="&lt;Trazado&gt;" class="cls-36" d="M872.24,466.14c-2.12-8.93-3.47-17.23,1.49-25.54a1,1,0,0,0-1.6-1.2c-7,7.59-4.8,18.47-2.69,27.47C869.85,468.65,872.66,467.91,872.24,466.14Z"/></g></g><path id="_Trazado_42" data-name="&lt;Trazado&gt;" class="cls-24" d="M931.63,422.53a23.29,23.29,0,0,0,2.79-11.95c-.11-8.75-1.19-17.71-5.17-25.34-4.58-8.79-15.19-16.95-25.36-13.63-11.91,3.89-9.93,20.21-8.31,31,1.29,8.59,4.88,17.1,11.41,22.39C916.73,432.92,926.86,430.82,931.63,422.53Z"/><path id="_Trazado_43" data-name="&lt;Trazado&gt;" class="cls-26" d="M1006.37,790.51c-.87,1.78,1.42,1.87,2.37,1.55a16.66,16.66,0,0,0,4.83-2.52,3.31,3.31,0,0,0,1-1,3.71,3.71,0,0,0,.31-1.09c.18-1,.89-2.84.68-3.85-.17-.83-1-1.37-1.62-1.9-1.41-1.14-3.88-3.21-4.59-5-3.4,2-8.57,4.29-11.11,6.57,1.39,1,1.52,1.89,2.39,2.68-.57-.52-8.25,5.48-9.18,6.13a52.37,52.37,0,0,1-4.65,2.95c-1.25.69-4,1.19-4.17,2.82a4,4,0,0,0,.29,1.7,3.29,3.29,0,0,0,.63,1.15,2.61,2.61,0,0,0,2.09.72C993.87,800.84,999.12,793.6,1006.37,790.51Z"/><g id="_Grupo_8" data-name="&lt;Grupo&gt;"><path id="_Trazado_44" data-name="&lt;Trazado&gt;" class="cls-36" d="M956.54,461.24q-.79-1.76-1.6-3.52c-21.44,4.17-42.84,7.85-64.56,9.66-.13,1.18-.28,2.35-.4,3.53C912.45,469.37,934.81,465.75,956.54,461.24Z"/><path id="_Trazado_45" data-name="&lt;Trazado&gt;" class="cls-36" d="M887.49,535.87c0,1.14.08,2.27.12,3.41a648.85,648.85,0,0,0,88.78-12.54c-.27-1.45-.54-2.9-.82-4.35C946.56,528.48,917.32,533.38,887.49,535.87Z"/><path id="_Trazado_46" data-name="&lt;Trazado&gt;" class="cls-36" d="M893.65,602.4c.13.83.26,1.66.39,2.48,6.38-.77,12.7-1.64,18.9-2.48A616.92,616.92,0,0,0,983,588.64c-.05-1.19-.11-2.38-.17-3.56-18,4.65-36.32,8.67-55.13,11.94C917,598.89,905.43,600.9,893.65,602.4Z"/><path id="_Trazado_47" data-name="&lt;Trazado&gt;" class="cls-36" d="M887.84,546.19c0,.54.07,1.08.09,1.62,30.41-2.08,60.7-6.52,90-12-.11-.68-.23-1.36-.34-2-23.17,4-46.29,8-70,10.62C901,545.1,894.44,545.69,887.84,546.19Z"/><path id="_Trazado_48" data-name="&lt;Trazado&gt;" class="cls-36" d="M889.47,476.34c-.05.57-.1,1.13-.15,1.7,23.73-1.94,47.34-5.27,70.42-9.32-.28-.68-.54-1.37-.83-2.05-19.14,3.28-38.32,6.38-57.9,8.53Q895.25,475.83,889.47,476.34Z"/><path id="_Trazado_49" data-name="&lt;Trazado&gt;" class="cls-36" d="M895.77,614.76a365,365,0,0,0,87.67-16c0-.6,0-1.21-.06-1.81a380.21,380.21,0,0,1-88,15.77Q895.58,613.77,895.77,614.76Z"/></g><g id="_Grupo_9" data-name="&lt;Grupo&gt;"><path id="_Trazado_50" data-name="&lt;Trazado&gt;" class="cls-24" d="M856.58,540.22a12.77,12.77,0,0,0-3.76,1.82,4.33,4.33,0,0,0-1.79,3.61,2.65,2.65,0,0,0,2.82,2.45,1.36,1.36,0,0,0,.22,1.15c2.85.8,5.7-1,8.31-2.38a36.91,36.91,0,0,1,6.32-2.67c1.84-.59,3.92-1.17,4.9-2.84a5.09,5.09,0,0,0,.19-4.1,27.75,27.75,0,0,0-1.84-3.8l-10.29,1.91a3.54,3.54,0,0,0-1.59.57,1.22,1.22,0,0,0-.4,1.5,3.09,3.09,0,0,1,2,1Z"/><g id="_Grupo_10" data-name="&lt;Grupo&gt;"><path id="_Trazado_51" data-name="&lt;Trazado&gt;" class="cls-35" d="M961.27,463.65c-2.7-12.05-18.21-14.6-21.24.59-2.74,13.76-3.66,27.8-9.87,41.07a25.7,25.7,0,0,1-15.59,13.58q-21.69,7.23-43.66,13.43l1.89,9.36L929,533.19c3.61-.54,7.35-1.13,10.56-2.95A24.64,24.64,0,0,0,947,523C960.32,504.9,965.61,483,961.27,463.65Z"/><path id="_Trazado_52" data-name="&lt;Trazado&gt;" class="cls-36" d="M910.36,521a59.45,59.45,0,0,0,4,13.84.7.7,0,0,0,1.29-.55,90.39,90.39,0,0,1-4.17-13.44C911.27,520.23,910.27,520.32,910.36,521Z"/><path id="_Trazado_53" data-name="&lt;Trazado&gt;" class="cls-36" d="M959.21,491.71c-6.13,2.61-17.48,4.84-23.23.19-.56-.45-1.14.4-.65.87,5.78,5.59,18,2.93,24.62.67C961.09,493.06,960.34,491.23,959.21,491.71Z"/><path id="_Trazado_54" data-name="&lt;Trazado&gt;" class="cls-36" d="M914.68,519.67c-.12,2,.65,3.92,1.27,5.8.9,2.73,1.95,5.41,3,8.07a1,1,0,0,0,1.87-.79c-.82-2-1.62-4-2.4-6-.88-2.28-2.14-4.66-2.55-7.08C915.8,519,914.72,518.95,914.68,519.67Z"/><path id="_Trazado_55" data-name="&lt;Trazado&gt;" class="cls-36" d="M960.24,483.31c-7.65,3-14.84,5.26-22.81,2-.93-.37-1.73,1-.87,1.54,7.59,5.11,17,1.74,24.67-1.25C962.76,485,961.76,482.71,960.24,483.31Z"/></g></g></g></g><path id="_Trazado_56" data-name="&lt;Trazado&gt;" class="cls-37" d="M965.34,386.34a8.38,8.38,0,0,0-7-4.23c0-.14.05-.29.07-.43,3.45-2.91,4.75-8.22.66-12.86a11,11,0,0,0-3.53-2.75,61.88,61.88,0,0,0-12.81-7.46,9.64,9.64,0,0,0-1.13-.39,17.87,17.87,0,0,0-15.34-14.83,22.29,22.29,0,0,0-6.35,0c-8.62-4.28-18.57-.1-23.62,7.39a11.92,11.92,0,0,0-6.53,8.79l-.36.07c-7.5,1.93-12.32,9.72-10,17.13,1.17,3.66,4.63,6.75,8.66,6.59l5.74-.23a8.78,8.78,0,0,0,5.43-2.23c.39.19.8.37,1.21.52a15.12,15.12,0,0,0,4.24.93,13.24,13.24,0,0,0,5.32,4.49A20.3,20.3,0,0,0,924.43,388a12.3,12.3,0,0,0,1.2,1,12,12,0,0,0,2.06,1.25,19,19,0,0,0-1.92,3.75c-1.82,4.72,2.06,9.61,6.27,11a11,11,0,0,0,2.56.54c-1.79,4.7.52,11.15,5.88,12.28,6.85,1.45,13.5-.56,17.92-6.14,3.06-3.88,3.6-7.78,4-12.05C966.47,396.52,968.7,391.79,965.34,386.34Z"/><g id="_Grupo_11" data-name="&lt;Grupo&gt;"><path id="_Trazado_57" data-name="&lt;Trazado&gt;" class="cls-38" d="M879.55,304.06a73.66,73.66,0,0,1-4.11,8c-.66,1.06.89,1.93,1.62,1,1.83-2.38,3.72-4.75,5.35-7.27C883.61,303.95,880.44,302.13,879.55,304.06Z"/><path id="_Trazado_58" data-name="&lt;Trazado&gt;" class="cls-38" d="M852.1,311.35a15.47,15.47,0,0,0,3.35,2,14.25,14.25,0,0,0,3.91,1.76c.68.11,1.57-.57,1-1.31a12.79,12.79,0,0,0-3-2.6,17.57,17.57,0,0,0-3.7-2.41A1.56,1.56,0,0,0,852.1,311.35Z"/><path id="_Trazado_59" data-name="&lt;Trazado&gt;" class="cls-38" d="M863.37,301.69a22.87,22.87,0,0,0,1.05,4.79,11.56,11.56,0,0,0,1.62,4,.92.92,0,0,0,1.54-.37,10,10,0,0,0-.11-3.75,24.33,24.33,0,0,0-1-5C865.93,299.77,863.24,299.76,863.37,301.69Z"/></g></g><g id="_Grupo_12" data-name="&lt;Grupo&gt;"><path id="_Trazado_60" data-name="&lt;Trazado&gt;" class="cls-35" d="M705.29,675.62c1.41-31.22-1.55-63.06-1.3-94.48a74.34,74.34,0,0,1,4.4-32.22,5,5,0,0,1,1-1.77c1.47-1.51,4-.71,5.92.1a63.6,63.6,0,0,0,57.75-5c3.36,5.12,4.33,11.41,5.16,17.48,1.34,9.82,2.81,19.61,3.17,29.47v.06h0c.08,2.12.12,4.24.08,6.36-.23,12.29-2.61,24.4-4.46,36.51A172.43,172.43,0,0,0,774.62,656c-.08,6.55.84,12.54-.63,19-3.61,15.8-3.62,33-5.15,49.14-1.63,17.28-3.25,34.57-4.58,51.88l-.16,2.07c-.87.23-14.19,3.3-14.19-.15l-3.2-100.78c-.45-14.14-.93-28.48-4.51-41.95l-4.43.44L713.42,769c-.71,3.91-1.58,8.14-4.16,10.66s-7.4,1.82-8.16-2.09C703.48,743.57,703.76,709.61,705.29,675.62Z"/><g id="_Grupo_13" data-name="&lt;Grupo&gt;"><path id="_Trazado_61" data-name="&lt;Trazado&gt;" class="cls-39" d="M753.82,783.73a62.57,62.57,0,0,1,15.27.64,56.87,56.87,0,0,0,12.62,7.1,9.8,9.8,0,0,1,3.64,2.06,3,3,0,0,1,.45,3.83c-.79.94-2.17,1-3.4,1.06A148.09,148.09,0,0,1,754.32,796a2.84,2.84,0,0,1-1.55-.62,2.58,2.58,0,0,1-.59-1.2A13.27,13.27,0,0,1,753.82,783.73Z"/><path id="_Trazado_62" data-name="&lt;Trazado&gt;" class="cls-39" d="M711.79,783.22a62.57,62.57,0,0,0-15.2,1.56,56.87,56.87,0,0,1-12.18,7.84,9.8,9.8,0,0,0-3.51,2.28,3,3,0,0,0-.22,3.85c.84.9,2.23.91,3.46.85A148.08,148.08,0,0,0,712,795.54a2.84,2.84,0,0,0,1.5-.71,2.58,2.58,0,0,0,.51-1.23A13.27,13.27,0,0,0,711.79,783.22Z"/><g id="_Grupo_14" data-name="&lt;Grupo&gt;"><path class="cls-40" d="M763,367.07a9.5,9.5,0,0,0-1.21-4.81c-1.46-2.13-4.31-2.69-6.87-3-10.95,0-21.75.5-32.78,1a4.56,4.56,0,0,0-2.65.69,4.09,4.09,0,0,0-1.24,2.63c-.77,4.53.7,9.27.63,13.9a75.89,75.89,0,0,0,.95,14.21c1.6,9.11,5.79,17.59,13.71,22.77a16.21,16.21,0,0,0,8.82,3c4.24,0,8.13-2.49,11.07-5.54C764.42,400.62,764.09,382.82,763,367.07Z"/><path class="cls-30" d="M752.13,411.05c-2.05,4.5-7.14,5.82-12.41,4.33-2.85-.81-6.5-3.46-9.45-3.74,2.27,3.07,5.38,6.28,9.12,7.06A11.89,11.89,0,0,0,750,415.83C751.31,414.55,752.83,412.74,752.13,411.05Z"/></g><path class="cls-30" d="M761.16,349.25c-3.54-2.72-8-3.34-12.31-3.54-4.73-.22-9.16-1.34-14-.58-2.48.39-4.91,1.11-7.42,1.31a10.21,10.21,0,0,1-7.16-1.72c-.85-.67-1.66-1.58-2.74-1.62-1.51-.06-2.46,1.59-3,3a48.14,48.14,0,0,0-2.66,23.13c.88,6.24,5.42,12.59,7.83,18.48a1.48,1.48,0,0,0,.37.6,1,1,0,0,0,1.43-.38,3.08,3.08,0,0,0,.3-1.63A46.12,46.12,0,0,1,723.66,373c1.65-5.22,3.28-3.12,7.91-3.43,6.95-.47,14.47-6.1,21.37-2.57,2.29,1.17,4,3.25,5.55,5.26,2.33,2.94,4.78,6.23,4.62,10,3.28-1.65,4-5.93,4.32-9.59C768.1,364.21,767.83,354.39,761.16,349.25Z"/><path class="cls-23" d="M787.58,529.32l-1.55-14c-3.23-29.23-6.54-58.8-16.44-86.4-2.45-6.84-8.7-14.69-15.32-7.66a17.87,17.87,0,0,1-2.93,2.63c-6.6,4.55-15.45,4.08-22.68,1.38-6.32-2.36-10.13-11.39-17.92-8-7.34,3.2-10.65,16-11.65,23.32-1.82,13.39-2.61,27.2-4,40.7-2.51,24.07-5,48.16-6,72.34-.41,10-.57,20.14-2.68,29.94,5.34,1.4,10.94,1,16.45,1,12.92,0,25.75,2,38.64,2.85,10.3.68,20.8.59,30.88-1.93,1.64-.41,20.93-4.52,20.82-5.51Z"/></g><path class="cls-32" d="M792.27,574.33c.3-.06.4-.22.23-.52a103.43,103.43,0,0,1-4.65-9.8,567,567,0,0,0-7.13-62.74c-4.53-25.51-14.28-49.17-20.1-74.26-1.71-7.38-10.52-6.72-13.81-1.56l-.76.16a31.88,31.88,0,0,0-10.41-6c-4.67-1.68-9.54,2.68-9.53,7.26,0,4.89-.07,9.79-.19,14.7a746.85,746.85,0,0,0-14.58,121.24s0,.09,0,.14q-.68,3.14-1.39,6.27a40.67,40.67,0,0,0-2.24,9.54l-.19.82a6.58,6.58,0,0,0,4.47,7.88,98.82,98.82,0,0,0,77.24-3.84,7.07,7.07,0,0,0,.92-.53l.64-.27,1.14-.88a5.54,5.54,0,0,0,1.54-3.23A5.92,5.92,0,0,0,792.27,574.33Z"/><g id="_Grupo_15" data-name="&lt;Grupo&gt;"><path id="_Trazado_63" data-name="&lt;Trazado&gt;" class="cls-24" d="M818.34,352.94a16.79,16.79,0,0,1,2.42-4.8c1-1.42,2.75-2.79,4.42-2.14s2,2.76,1.91,4.49c-.33,8-3.78,15.41-7.17,22.62a27.12,27.12,0,0,1-7.81-3.39,20.12,20.12,0,0,0,3-9.34c.24-3.52-.37-7.41,1.7-10.27l1.26.65Z"/><g id="_Grupo_16" data-name="&lt;Grupo&gt;"><path id="_Trazado_64" data-name="&lt;Trazado&gt;" class="cls-23" d="M714,479.19c-10.15,6.84-6.67-32.71-7.17-37.57-.58-5.63-1.44-15.09,3.35-19.38,8.46-7.6,31.53,1.46,41.61,2.59a81,81,0,0,0,32.61-3A20.12,20.12,0,0,0,791,418.7c5.24-4.11,20.21-51,21.26-50.67l10.51,2.9c-3.18,14.47-6.26,29-9.55,43.42-2.54,11.14-3,24.13-11,33-5.09,5.65-12.5,8.66-19.89,10.44C762.7,462.57,731.46,467.43,714,479.19Z"/></g></g><g id="_Grupo_17" data-name="&lt;Grupo&gt;"><path id="_Trazado_65" data-name="&lt;Trazado&gt;" class="cls-38" d="M688,327.1a73.64,73.64,0,0,1,1.4,8.91c.09,1.25,1.86,1,1.89-.16.07-3,.21-6,0-9C691.17,324.62,687.54,325,688,327.1Z"/><path id="_Trazado_66" data-name="&lt;Trazado&gt;" class="cls-38" d="M670.07,349.17a15.47,15.47,0,0,0,3.89-.35,14.25,14.25,0,0,0,4.19-.88c.61-.31.93-1.39.07-1.68a12.79,12.79,0,0,0-4-.31,17.58,17.58,0,0,0-4.41.23A1.56,1.56,0,0,0,670.07,349.17Z"/><path id="_Trazado_67" data-name="&lt;Trazado&gt;" class="cls-38" d="M673.49,334.71a22.86,22.86,0,0,0,3.67,3.25,11.56,11.56,0,0,0,3.67,2.29.92.92,0,0,0,1-1.21,10,10,0,0,0-2.3-3,24.33,24.33,0,0,0-3.74-3.5C674.43,331.66,672.25,333.23,673.49,334.71Z"/></g></g><g class="cls-41"><path id="_Trazado_68" data-name="&lt;Trazado&gt;" class="cls-42" d="M1386.39,797.47c3.17-1.1,4.09-2.44,1.38-4.07-2.18-1.31-8.48-.61-11.37-.68-13.48-.32-27-.56-40.5-.52-27.21.09-54.47,1.13-81.55,3.12-4,.3-33.13,1.44-28.37,6.42,2.42,2.53,14,.93,18.27.91l28-.11,56-.22C1332.47,802.32,1374.71,801.52,1386.39,797.47Z"/></g><g id="_Grupo_18" data-name="&lt;Grupo&gt;"><path id="_Trazado_69" data-name="&lt;Trazado&gt;" class="cls-34" d="M1201.25,528.84c-1.14-1.19-2.87-2.34-4.3-.93s-1,4-.35,5.78l4.31,11.61c2.8,7.55,5.68,15.24,10.57,20.7,2,2.22,4.72,4.1,7.7,2.85,1.85-.78,3.42-2.63,4.83-4.47,7-9.17-.63-12.57-5.26-17.37Z"/><path id="_Trazado_70" data-name="&lt;Trazado&gt;" class="cls-34" d="M1229.61,511a21.68,21.68,0,0,0-1.91-9.14c-1.46-2.9-4.31-5.32-6.75-4.94-2.23.35-3.4,2.79-4.23,5.12a140.38,140.38,0,0,0-4.81,18.89l-4.22,20.42a13.68,13.68,0,0,0-.22,6.55c1.1,4,7.85,9.76,10.84,8.18,2.68-1.41,4.67-11,5.82-14.27C1227.48,532.43,1230,522.24,1229.61,511Z"/><path id="_Trazado_71" data-name="&lt;Trazado&gt;" class="cls-43" d="M1313.35,732.63a95.09,95.09,0,0,1-7.23-14.65c-2.26-6.31-3.15-13-4-19.66L1291.82,621a16,16,0,0,0-1.72-6.26c-3.23-5.37-11-5.12-17.15-4.21a10,10,0,0,0-2.42.61q-18.91,1.94-37.88,3a7.39,7.39,0,0,0-6.68,6.4c-.37-.12-.63,0-.41.44h.37a5.58,5.58,0,0,0,1.32,3.81,573.58,573.58,0,0,0,10.51,115c3.25,16.7,7.26,33.4,7.33,50.41l10.73,0,3.31-145.13a99.52,99.52,0,0,0,3.09,10.7c5.58,16.52,12.12,32.63,15.63,49.78a6.11,6.11,0,0,0,2.38,3.88c3.36,8.74,7.58,17.28,13.15,24.54,11.95,15.56,19.93,29.9,32.06,48.48a21.9,21.9,0,0,0,13.41-4.83Z"/><path id="_Trazado_72" data-name="&lt;Trazado&gt;" class="cls-26" d="M1247.53,798.28c-1.49,1.25.53,2.24,1.51,2.33a16.32,16.32,0,0,0,5.33-.35,3.25,3.25,0,0,0,1.29-.54,3.63,3.63,0,0,0,.71-.85c.57-.85,1.92-2.2,2.13-3.18a3.7,3.7,0,0,0-.69-2.35c-.81-1.58-2.2-3.2-2.13-5.07-3.83.42-7.5-.9-10.68.13-.27,1.33-1.27,2.43-.8,3.47-.31-.69-9.56,1.64-10.66,1.85a51.33,51.33,0,0,1-5.33.8c-1.4.12-4.07-.52-4.85.87a3.89,3.89,0,0,0-.41,1.64,3.23,3.23,0,0,0,.1,1.28,2.56,2.56,0,0,0,1.59,1.47C1232.23,802.58,1239.81,798.17,1247.53,798.28Z"/><path id="_Trazado_73" data-name="&lt;Trazado&gt;" class="cls-26" d="M1332.55,788.85c-.92,1.88,1.5,2,2.5,1.64a17.61,17.61,0,0,0,5.11-2.67,3.5,3.5,0,0,0,1-1.1,3.92,3.92,0,0,0,.33-1.15c.19-1.09.94-3,.72-4.07-.18-.88-1-1.45-1.71-2-1.49-1.2-4.1-3.4-4.85-5.28-3.6,2.09-9.06,4.54-11.75,6.94,1.47,1.07,1.61,2,2.52,2.83-.6-.55-8.72,5.79-9.71,6.48a55.35,55.35,0,0,1-4.91,3.11c-1.32.73-4.24,1.26-4.41,3a4.2,4.2,0,0,0,.31,1.8,3.48,3.48,0,0,0,.66,1.22,2.76,2.76,0,0,0,2.21.76C1319.33,799.77,1324.88,792.11,1332.55,788.85Z"/><path id="_Trazado_74" data-name="&lt;Trazado&gt;" class="cls-24" d="M1243.5,453.32a22.86,22.86,0,0,0,2.74-11.73c-.11-8.59-1.17-17.38-5.08-24.87-4.5-8.62-14.92-16.64-24.9-13.38-11.69,3.82-9.75,19.84-8.16,30.46,1.26,8.44,4.79,16.79,11.2,22C1228.88,463.53,1238.82,461.46,1243.5,453.32Z"/><path id="_Trazado_75" data-name="&lt;Trazado&gt;" class="cls-34" d="M1263.9,494.92c-5.62-14.9-20-34.34-30.07-27a13.23,13.23,0,0,0-4,.36l-5.71,1.47c-10.86,2.8-11.28,13.38-5.34,18.79-.94,6.24-1.85,11.63-2.67,16.62a5.67,5.67,0,0,1,.3,3.32,161.81,161.81,0,0,0-2.71,19.66,83.47,83.47,0,0,1-.62,11c-.66,19.48.69,39.08-.23,58.52-.26,5.55-.69,11.09-1.18,16.63,2.73,3.88,7.69,6.67,15.05,6.73q9.3.09,18.61.11c5.94.22,11.84.1,17,.06l5.25,0c5.51,0,9.7-1.71,12.6-4.35,1.55.11,3.09.23,4.61.36,9.61.85,17-7.57,17.34-15C1304.3,558.43,1279.34,535.81,1263.9,494.92Z"/><path id="_Trazado_76" data-name="&lt;Trazado&gt;" class="cls-37" d="M1272.94,445.8c-1.09-3.76-4.95-6.21-7-9.5-4.18-6.67-4.65-14-4.93-21.83-.33-9.14-4.41-14.07-11.4-18.62-11.39-7.4-26.93-7.79-38.24,0l-.89.64a41.14,41.14,0,0,0-2.81,4.49,3.6,3.6,0,0,0-3.33,3c-.63,2.72-1.25,5.46-1.84,8.2a4.25,4.25,0,0,0-1.29,6.33c-3,15.71-4.41,31.65.39,47.27a4.3,4.3,0,0,0,4,3.06l3.53,1.26a3.65,3.65,0,0,0,4,.1,53.54,53.54,0,0,0,4.71,6.48c3,3.57,9.35-1.2,6.56-5.06a84.8,84.8,0,0,1-8.79-15.23c-3.5-10-3.8-21.12-3.13-32a88.17,88.17,0,0,0,27.08-5.63c-.1,1.16-.29,2.31-.46,3.38-1,6.15-1.95,7-.11,12.8,3.73,11.74-.69,23.42,10.12,30.76,7.93,5.38,17.29,3.81,21.86-6.21C1272.44,456.14,1274,449.53,1272.94,445.8Z"/><path id="_Trazado_77" data-name="&lt;Trazado&gt;" class="cls-34" d="M1277.29,406.45q-13.83,38-29.48,75.33c-1.21,2.9-2.45,5.87-2.48,9a9.07,9.07,0,0,0,4.42,8.13c3.59,2,8.4,1,11.54-1.42s5-5.81,6.6-9.18a238.54,238.54,0,0,0,24.31-98.08c.1-3.48.14-7.07,1.62-10.26.78-1.69,1.92-3.72.63-5.19-1.52-1.72-5.48-2.09-7-.65-1.93,1.88-2.17,8.39-2.94,11C1282.4,392.29,1279.87,399.38,1277.29,406.45Z"/><path id="_Trazado_78" data-name="&lt;Trazado&gt;" class="cls-24" d="M1295,358.05a8.39,8.39,0,0,0-6.72-5.15c-3.28-.39-6,1.27-5.91,4.73a15.48,15.48,0,0,0,1,5c.63,1.65,1.79,2.88,2.63,4.32,0,.49,0,1-.08,1.47a2.45,2.45,0,0,0,2.43,2.43l3.38-.16a2.35,2.35,0,0,0,2-1.17C1295.4,365.94,1296.58,361.89,1295,358.05Z"/><path id="_Trazado_79" data-name="&lt;Trazado&gt;" class="cls-24" d="M1197,529.91a2.41,2.41,0,0,0,.29-2.92l-.56-1a1.8,1.8,0,0,0-.4-2c-.33-.35-.7-.76-1.08-1.21a3.61,3.61,0,0,1,.52-1.55c1.15-1.77,3.56-2.14,4.62-4.15a6.62,6.62,0,0,0-3.51-9.13c-3.81-1.32-7.52,1.54-8.87,5l0,.1a7.4,7.4,0,0,0-.78,2.28c-.92,5.65,1.74,11.71,5.16,16.05A2.64,2.64,0,0,0,1197,529.91Z"/><g id="_Grupo_19" data-name="&lt;Grupo&gt;"><path id="_Trazado_80" data-name="&lt;Trazado&gt;" class="cls-38" d="M1201.88,357.43a73.64,73.64,0,0,1,1.4,8.91c.09,1.25,1.86,1,1.89-.16.07-3,.21-6,0-9C1205.09,355,1201.46,355.35,1201.88,357.43Z"/><path id="_Trazado_81" data-name="&lt;Trazado&gt;" class="cls-38" d="M1184,379.5a15.47,15.47,0,0,0,3.89-.35,14.25,14.25,0,0,0,4.19-.88c.61-.31.93-1.39.07-1.68a12.79,12.79,0,0,0-4-.31,17.57,17.57,0,0,0-4.41.23A1.56,1.56,0,0,0,1184,379.5Z"/><path id="_Trazado_82" data-name="&lt;Trazado&gt;" class="cls-38" d="M1187.41,365a22.86,22.86,0,0,0,3.67,3.25,11.56,11.56,0,0,0,3.67,2.29.92.92,0,0,0,1-1.21,10,10,0,0,0-2.3-3,24.33,24.33,0,0,0-3.74-3.5C1188.35,362,1186.17,363.56,1187.41,365Z"/></g></g><g class="cls-44"><path id="_Trazado_83" data-name="&lt;Trazado&gt;" class="cls-45" d="M555.83,800.28c2.51-.87,3.24-1.93,1.09-3.22-1.72-1-6.72-.49-9-.54-10.68-.25-21.38-.44-32.1-.41-21.56.07-43.17.9-64.63,2.48-3.19.23-26.26,1.14-22.48,5.09,1.92,2,11.09.73,14.48.72l22.2-.09,44.41-.18C513.1,804.12,546.58,803.49,555.83,800.28Z"/></g><path class="cls-30" d="M512.49,796.45a9.12,9.12,0,0,0-3.38-1.92,52.92,52.92,0,0,1-11.75-6.6,58.23,58.23,0,0,0-14.21-.6,12.35,12.35,0,0,0-1.52,9.76,2.4,2.4,0,0,0,.55,1.12,2.65,2.65,0,0,0,1.44.58A137.81,137.81,0,0,0,509.74,801c1.14,0,2.44-.11,3.17-1A2.81,2.81,0,0,0,512.49,796.45Z"/><path class="cls-30" d="M465.24,796.1a8.91,8.91,0,0,0-3.4-1.7A51.74,51.74,0,0,1,450,788.56a56.94,56.94,0,0,0-13.9.14,12.08,12.08,0,0,0-1,9.6,2.35,2.35,0,0,0,.59,1.06,2.59,2.59,0,0,0,1.43.49,134.74,134.74,0,0,0,25.62.83,4,4,0,0,0,3-1.12A2.75,2.75,0,0,0,465.24,796.1Z"/><path class="cls-40" d="M511.63,596.89h0s0,0,0-.06c-.33-10-1.69-19.84-2.92-29.75-.77-6.13-1.66-12.47-4.76-17.64a54.27,54.27,0,0,1-53.26,5c-1.8-.81-4.11-1.62-5.46-.1a5.16,5.16,0,0,0-.89,1.79,81.6,81.6,0,0,0-4.06,32.52c-.24,31.71,2.5,63.86,1.19,95.38-1.42,34.31-1.67,68.59-3.87,102.88.7,3.94,7.58,5.08,10,2.53s.74-7.24,1.4-11.19l22.46-134.63,4.09-.45c3.31,13.6,3.75,28.08,4.16,42.35l3,101.74c0,3.48,12.28.39,13.08.15l.15-2.09c1.23-17.47,2.72-34.92,4.23-52.37,1.41-16.29,1.42-33.66,4.75-49.61,1.35-6.47.5-12.52.58-19.13a190,190,0,0,1,2.19-24.09c1.71-12.23,3.9-24.45,4.11-36.85C511.74,601.17,511.7,599,511.63,596.89Z"/><path class="cls-24" d="M476.27,422.06c-.46-7.23-3.6-14-6.79-20.49-2.58-5.24-5.38-10.62-10-14.17a6.24,6.24,0,0,0-3.12-1.45,7.39,7.39,0,0,0-2.91.53c-8.93,2.91-18,5.87-25.83,11a3.3,3.3,0,0,0-1.41,1.45,3.34,3.34,0,0,0,0,1.82c3.62,18.1,11.44,42,29.58,46.48,8.8-4.25,7.23-1,16.35-4.47C469.7,438,476.61,427.4,476.27,422.06Z"/><path class="cls-46" d="M497.61,437c-2.06-2.41-5.1-3.73-6.36-6.68a61.64,61.64,0,0,1-2.88-10.87,153.9,153.9,0,0,0-8.62-27.64,10.53,10.53,0,0,0-.47-1,10.68,10.68,0,0,0-3.92-13.51,18.24,18.24,0,0,0-5.61-2.32,11.91,11.91,0,0,0-6.92-1.44l-.74.09c-18.58-2-47.47,2.25-46.07,17.11a4.52,4.52,0,0,0-1.1,2.16c-.39,2.32.26,3.77,1.5,4.63a14.4,14.4,0,0,0-1.5,5.13,13.16,13.16,0,0,0-2.21,4c-2.17,6.3-1,13.23.93,19.42,1.79,5.69,4.9,10.93,5,17,.12,6.75-4.48,7.64-10.26,9.09-11.4,2.86-17.84,9.44-18,21.72-.09,5.65,1.44,11.76,4.95,16.28s9.21,9.79,14.34,12a9.61,9.61,0,0,0,6.72.25c9.69,1.64,19.79-.2,26.22-8.49a19.57,19.57,0,0,0,2.13-3.42,16.27,16.27,0,0,0,5.19-9.4A14.38,14.38,0,0,0,437.19,464a12.33,12.33,0,0,0-3.78-3.33c4.95-3.62,9.42-7.06,11.38-13.26,4.06-12.85-3.39-27.12-13.43-34.91-1.09-.85-.77-1.63-1.94-1.82-.08-.31-.16-.62-.23-.93,4.88-1,3.66-7.57,1.14-11.57a12.72,12.72,0,0,1,4.61-3.45c2,.1,3.94.37,5.28.56,3.64.52,7.12.94,10.81,1.22,4.69.36,9.67,1.64,14.5,1.75.11.15.23.31.33.45a2.23,2.23,0,0,0,.81.73,115.18,115.18,0,0,1,5.7,16.19,93.12,93.12,0,0,1,2.07,11.8,6.66,6.66,0,0,0-3.64,6c-.44,7,.72,14.67,4.36,20.77.91,1.53,2.46,2.93,3.17,4.56.18.41.43.5.62.48a10.67,10.67,0,0,0-1.25,1c-2.38,2.18-4.35,3.8-5,7.18-2.77,14.86,16.19,18.53,24.42,8.95C505.19,467,505.66,446.44,497.61,437Z"/><path class="cls-43" d="M519,640.42c0-9.12-1.31-18.3-2.05-27.38s-1.37-18.25-2.35-27.35c-1.94-17.92-4.38-35.82-7.15-53.6-4.66-30-13.34-59.94-35.36-79.3-6.36,1.62-13.08,1.89-19.86,1.92a9,9,0,0,0-.4,1.28c-10.41,46.21-14.6,93.42-22.4,140.14-1,5.92-2.4,12.1-3.53,18.28-2.33,6.48-5.53,13.5-6.34,20.59a11.42,11.42,0,0,0-1.21,3.07c-2.69,3.56-2.25,9.43,2.31,11.58a5.64,5.64,0,0,0,3,.51c.15.06.28.15.44.21,16.12,6,33.57,9.85,50.61,9.14a9.86,9.86,0,0,0,2.89-.55c5,.33,9.89.51,14.91.64,6.27.16,14.72,1.64,20.35-1.7,3.36-2,4.45-6.28,3.91-10.17A12.26,12.26,0,0,0,519,640.42Z"/><path class="cls-47" d="M471,407.64c-4-1.22-9.28.27-11.4,4a.66.66,0,0,0-.07.2c-1.87.51-3.77,1.12-5.67,1.45a7.38,7.38,0,0,0-8.83-2.1c-4.45,1.09-8.32,4.44-9,9.25-.81,6,7.56,7.55,12,6.45,5.09-1.27,9.08-7.14,6.67-12.27,0-.06-.07-.1-.1-.16,1.83-.62,3.77-1,5.63-1.51,1.69,5.93,13.15,9.18,15.45,2.43C476.84,411.91,474.18,408.63,471,407.64ZM446.22,425.7c-4.68.48-10.55-2-8-7.45a10.64,10.64,0,0,1,4.91-5,.7.7,0,0,0,1.15.3c3.4-2.89,9.24-1,9.58,3.76C454.14,421.76,450.43,425.26,446.22,425.7Zm28-11.07c-1.5,5.65-13.83,2.57-12.87-2.88,0,0,0,0,0,0a10.38,10.38,0,0,1,6.48-2.93C471.12,408.64,475.25,410.79,474.24,414.62Z"/><path class="cls-24" d="M472.64,503.38c-9.51,5.33-34.15,19.15-45.47,17.94a330.42,330.42,0,0,0,27-30.9c6.18-8,4.3-20.9,2.45-30.1-1.21-6-7.89-5.76-11-2.11a5.81,5.81,0,0,0-4.79,3.76c-10.76,24.62-31.23,45.89-36.1,72.88-.67,3.68,1,8.63,5.29,9.32,26.52,4.27,44.87-23.49,66.66-33.45C485.44,506.69,476.07,501.45,472.64,503.38Z"/><path class="cls-24" d="M513.39,507.59c-1.37-2.17-2.25-4.51-3.84-6.58a27.43,27.43,0,0,0-5.53-5.29c-1.86-1.39-3.8.78-3.56,2.61a29.9,29.9,0,0,0,1.62,6.38c-2.4-.81-4.79-1.64-7.12-2.62l-.58-.05a6,6,0,0,1-4.7-2.57c-2.37-.11-4.55.31-6.1,1.79-3.55,3.39,15.51,14.28,17.73,16.15A11.61,11.61,0,0,0,505,519.8c4.75,1.57,9.52-5.16,7.87-9.5A1.89,1.89,0,0,0,513.39,507.59Z"/><path class="cls-24" d="M481.42,488.18a6.68,6.68,0,0,0-3.64-4.86,2.09,2.09,0,0,0-2.88,1.61l-.45,9.39-.86-.51c-1.66-1-3.33,1.15-2.8,2.68.92,2.66,2.64,4.16,4.24,6.35a1.9,1.9,0,0,0,2.58.73,2.11,2.11,0,0,0,3.17-.2,2,2,0,0,0,.46-1.71C482.68,497.08,483.74,492.27,481.42,488.18Z"/><path class="cls-24" d="M489.6,488.9a6.68,6.68,0,0,0-2.93-5.32,2.09,2.09,0,0,0-3.08,1.19L481.85,494l-.78-.63c-1.51-1.2-3.46.67-3.14,2.27.55,2.76,2,4.49,3.32,6.88a1.9,1.9,0,0,0,2.45,1.08,2.11,2.11,0,0,0,3.17.24,2,2,0,0,0,.7-1.62C489.61,497.88,491.32,493.27,489.6,488.9Z"/><path class="cls-38" d="M505.41,350.83a73.65,73.65,0,0,1-8.47,3.08c-1.21.33-.66,2,.51,1.82,3-.5,6-1,8.87-1.69C508.45,353.51,507.36,350,505.41,350.83Z"/><path class="cls-38" d="M483.2,336.68a1.56,1.56,0,0,0-2.88.82,15.5,15.5,0,0,0,1.09,3.75,14.25,14.25,0,0,0,1.67,3.94c.42.54,1.54.65,1.66-.25a12.79,12.79,0,0,0-.46-4A17.58,17.58,0,0,0,483.2,336.68Z"/><path class="cls-38" d="M495.16,338.09a22.87,22.87,0,0,0-2.48,4.22,11.56,11.56,0,0,0-1.54,4,.92.92,0,0,0,1.38.77,10,10,0,0,0,2.47-2.83A24.32,24.32,0,0,0,497.7,340C498.34,338.42,496.38,336.59,495.16,338.09Z"/><g class="cls-48"><path id="_Trazado_84" data-name="&lt;Trazado&gt;" class="cls-49" d="M360.86,800.11c3.17-1.1,4.09-2.44,1.38-4.07-2.18-1.31-8.48-.61-11.36-.68-13.48-.32-27-.56-40.5-.52-27.21.09-54.47,1.13-81.55,3.12-4,.3-33.13,1.44-28.37,6.42,2.42,2.53,14,.93,18.27.91l28-.11,56-.22C306.94,805,349.18,804.16,360.86,800.11Z"/></g><path class="cls-26" d="M339.59,794.21a3.67,3.67,0,0,0-.39-1.55c-.74-1.32-3.27-.71-4.59-.82a48.51,48.51,0,0,1-5-.75c-1-.2-9.79-2.41-10.08-1.75.44-1-.5-2-.76-3.28-3-1-6.48.27-10.1-.13.07,1.77-1.25,3.31-2,4.8a3.5,3.5,0,0,0-.66,2.22c.2.93,1.48,2.21,2,3a3.43,3.43,0,0,0,.67.81,3.07,3.07,0,0,0,1.22.51,15.43,15.43,0,0,0,5,.33c.92-.09,2.83-1,1.42-2.2,7.3-.11,14.47,4.07,21.66,1.42a2.42,2.42,0,0,0,1.5-1.39A3,3,0,0,0,339.59,794.21Z"/><path class="cls-30" d="M348.52,627.73c0-1.18-10.3-.6-10.81.47l-24.73.65c-1.87,0-3.88.15-5.32,1.34-2,1.62-12.64,4.78-12.58,7.33,1.15,50.32,12.87,100.4,14,150.72l10.15,0c.06-16.09,9-31.8,12.07-47.59C338.44,704,349.05,665.05,348.52,627.73Z"/><path class="cls-30" d="M283.25,622.35a5.62,5.62,0,0,0-3.54-1.41c-5.86-.86-13.17-1.09-16.22,4-1.06,1.77.19,6.89-1.63,5.92-53-28.29-6.47,48.75-9.71,73.13-.83,6.29-1.68,12.63-3.82,18.6a90,90,0,0,1-6.84,13.86L217.36,779A20.72,20.72,0,0,0,230,783.55c4.24-7.85,10.21-9.55,36.51-34.25,8.78-8.25,18.06-27.49,21.67-39,2-6.51,4-54.94,4.57-61.73,1.56-19.33,2.05-6.52,3.61-25.85C296.53,621.24,284.23,623.46,283.25,622.35Z"/><g id="_Grupo_20" data-name="&lt;Grupo&gt;"><path class="cls-24" d="M197,348.32c.86-3.42,2.63-6.94,1.54-10.3l-1.4.23-.9,2a16.8,16.8,0,0,0-.83-5.31c-.54-1.66-1.76-3.5-3.55-3.39s-2.73,2-3.19,3.68c-2.14,7.68-1.14,15.83-.13,23.73a27.12,27.12,0,0,0,8.47-.83A20.12,20.12,0,0,1,197,348.32Z"/><g id="_Grupo_21" data-name="&lt;Grupo&gt;"><path id="_Trazado_85" data-name="&lt;Trazado&gt;" class="cls-24" d="M249.19,482.82c12.68,6.21,29.62-29.8,13.6-37.17C248.29,439,224,438.21,211,427.91a28.48,28.48,0,0,1-10.77-20.54q-2.06-25.44-2.88-50.91l-10.9-.47-6.06,63.15c-.39,4.06-.77,8.27.36,12.24s3.49,7.06,6,10C203.13,460.7,229.08,473,249.19,482.82Z"/></g></g><path class="cls-26" d="M245.77,797.55c-.16-1.62-2.92-2.13-4.17-2.82a52.36,52.36,0,0,1-4.65-2.95c-.94-.65-8.61-6.65-9.18-6.13.87-.78,1-1.67,2.38-2.68-2.54-2.28-7.71-4.59-11.11-6.57-.71,1.78-3.18,3.86-4.59,5-.66.54-1.45,1.07-1.62,1.9-.21,1,.5,2.82.68,3.85a3.71,3.71,0,0,0,.31,1.09,3.31,3.31,0,0,0,1,1,16.65,16.65,0,0,0,4.83,2.52c.94.31,3.24.22,2.37-1.55,7.25,3.08,12.51,10.33,20.76,10.86a2.61,2.61,0,0,0,2.09-.72,3.3,3.3,0,0,0,.63-1.15A4,4,0,0,0,245.77,797.55Z"/><g id="_Grupo_22" data-name="&lt;Grupo&gt;"><path class="cls-24" d="M400,362a1.36,1.36,0,0,0-1.15-.18,2.65,2.65,0,0,0-2.54-2.74,4.33,4.33,0,0,0-3.55,1.91,12.77,12.77,0,0,0-1.7,3.82l-1.63,5.11a3.09,3.09,0,0,1-1.06-1.92,1.22,1.22,0,0,0-1.49.45,3.53,3.53,0,0,0-.52,1.6l-1.57,10.34a27.79,27.79,0,0,0,3.86,1.72,5.09,5.09,0,0,0,4.09-.32c1.64-1,2.15-3.12,2.68-5a36.85,36.85,0,0,1,2.47-6.4C399.2,367.75,400.9,364.84,400,362Z"/><path class="cls-24" d="M384.62,379.4q-5.47,22.15-12,44.07a25.7,25.7,0,0,1-13.06,16c-13.06,6.64-27.07,8-40.73,11.2-15.08,3.52-12,18.94.1,21.25,19.46,3.7,41.2-2.29,58.88-16.23a24.65,24.65,0,0,0,7-7.64c1.71-3.27,2.18-7,2.6-10.65L394,381Z"/></g><path id="_Trazado_86" data-name="&lt;Trazado&gt;" class="cls-24" d="M264.53,383.8c-3.23,5.72-3.75,12.52-4.1,19.08-.44,8.14-.69,16.51,2,24.19,2,5.68,1.29,4,13.13,10.59,11-.42,0-.93,11-.42,39.83-9.27,22.51-34,18.26-54.28a3.76,3.76,0,0,0-.78-1.89,3.71,3.71,0,0,0-2.1-.88c-10.39-1.89-21.07-1-31.59,0a8.31,8.31,0,0,0-3.24.74A7,7,0,0,0,264.53,383.8Z"/><path id="_Trazado_87" data-name="&lt;Trazado&gt;" class="cls-37" d="M310.91,368.54c-2.08-1.33-3.67-.38-5.22.74a5.34,5.34,0,0,0-.76-.09,4.65,4.65,0,0,0-2.65.86,36,36,0,0,0-11.35-1.81c-1.53-1.44-3.11-2.77-5.26-3s-4.05.86-5.81,2.42c-2.32-3.83-6.09-6-10.6-2.41a7.42,7.42,0,0,0-2.1,2.4,17.63,17.63,0,0,0-1.6,1.12,7.34,7.34,0,0,0-3.31.56,6.36,6.36,0,0,0-3.88,7.5,7.77,7.77,0,0,0-.58,3.08q-.5,1.26-.9,2.56a8,8,0,0,0-.75.76,6.07,6.07,0,0,0-2.09,1c-2.32,1.07-3.26,4-3,6.71a5.13,5.13,0,0,0,.62,3.06,3.51,3.51,0,0,0,.78.85,5,5,0,0,0,3.25,2.13,20.93,20.93,0,0,0,.57,2.36,22.55,22.55,0,0,0,2.89,14.4c.06.12.11.25.17.37h0c.11.18.18.37.29.55,1.35,2.23,5.14,0,4-2.36-1.7-3.32-3.54-12.18,2.52-10.53,3.55,1,3.85,3.66,5.51,7.06A2.31,2.31,0,0,0,276,407.6a42,42,0,0,0-2.23-10.24c-.29-.78-.58-1.49-.84-2.16a2.54,2.54,0,0,0,.67-.28c2.62-1.67,4-4.52,5-7.6l.2-.11c.13.31.25.61.4.94a2.15,2.15,0,0,0,3.66.43,20.53,20.53,0,0,0,2.36-4.25c1.91,1.24,4.16,1.35,5.38-.5,2.34.65,4.52.2,7.35-.56,1.37-.37,3.06-.78,4.81-1.33a12.46,12.46,0,0,0,1.41.38,3.49,3.49,0,0,0,4.18-2.77,9,9,0,0,0,3.68-3.77C313,373.6,313.26,370.05,310.91,368.54Z"/><path id="_Trazado_88" data-name="&lt;Trazado&gt;" class="cls-36" d="M360.12,455.28c4.49-7.39-2-21-13.74-15-2.78,1.43-7.19,1.29-10.32,2l-8,1.84a96.64,96.64,0,0,1-14.67-.21,9.28,9.28,0,0,0-3.83.37,21.59,21.59,0,0,0-1.47-1.73c-16.57,3.61-33.75,2.38-50.06-2.7l-3.19-.07a94.8,94.8,0,0,1-10.56-1c-1.8-.29-3.56-.6-5.29-.89-3.42-6-12.65-9.49-18.35-3.3-1.15,1.25-2.28,2.52-3.42,3.77a13,13,0,0,0-6.32,7c-1.93,2.13-3.87,4.24-5.79,6.38-4.37,4.88-3.41,10.81-.17,14.71a9.55,9.55,0,0,0,8.52,4.42,9,9,0,0,0,2,2.35c3.85,3.24,7.86,5.71,11.36,9.35,3.13,3.25,6.43,6.2,9.55,9.44a173.67,173.67,0,0,0-5.48,27.44c-.35,3.23-.58,6.48-.71,9.74-4,27.59-3.46,55.37-2.2,83.21a20.05,20.05,0,0,0-2,8c-6.89,4.35-7.8,16.9,2.22,18.86A254.26,254.26,0,0,0,263,643.75l.72,0a65.37,65.37,0,0,0,7.05,1.63c7.31,1.33,14.68,2.36,22.06,3.17a261.64,261.64,0,0,0,43.22,1c7.8-.44,15.06-6.43,14.8-14.8-1.52-48.88-7.67-97.94-15.52-146.18,6.24-4.51,12.31-9.34,18.22-14.2,6-2.25,9.18-8.78,6.35-14.44A13.83,13.83,0,0,0,360.12,455.28Z"/><path class="cls-50" d="M317.57,498.23c-.14-5.84-4.51-9.45-10-10-10.62-1.1-21.23-2.26-31.86-3.15a8.18,8.18,0,0,0-4.65,1c-5.91-2.76-14.18-.26-14.68,8.9-1,17.93-2.26,35.16-4.68,52.72-1,7.52,4,13.07,11.75,11.75,8.83-1.51,18.68.08,27.52,1.1,8.38,1,15.33,1.19,18.83-8C316.17,535.59,318,516.14,317.57,498.23Z"/></g></g></svg>